<svg width="205" height="58" viewBox="0 0 205 58" fill="none" xmlns="http://www.w3.org/2000/svg">
<path d="M35.9661 7.83612C28.4905 3.52008 19.0448 5.80015 14.8987 12.9814C12.0802 17.8631 11.3283 25.9997 11.8019 35.2422C12.6051 34.7539 13.643 34.7072 14.5147 35.2105C15.465 35.7591 15.9483 36.8055 15.8255 37.8304C16.6516 37.2116 17.7995 37.107 18.7498 37.6556C19.7001 38.2042 20.1834 39.2506 20.0606 40.2755C20.8867 39.6567 22.034 39.5517 22.9849 40.1007C23.8572 40.6044 24.3366 41.5279 24.3136 42.4691C32.5489 38.2622 39.2221 33.541 42.0438 28.6537C46.1899 21.4724 43.4417 12.1522 35.9661 7.83612ZM23.5089 18.7407C24.9817 16.1898 28.2467 15.3155 30.7976 16.7883C33.3484 18.261 34.2238 21.5257 32.751 24.0766C31.2779 26.6282 28.0129 27.5025 25.462 26.0297C22.9111 24.557 22.0358 21.2922 23.5089 18.7407Z" fill="#F0F0F0"/>
<path d="M12.1379 39.9558C12.2406 41.0942 12.3587 42.2432 12.4906 43.3985C12.5926 44.3927 12.6968 46.1173 13.5722 46.6227C14.4483 47.1285 15.994 46.3565 16.9187 45.9442C17.9825 45.4826 19.0323 45.0121 20.0659 44.5338L12.1379 39.9558Z" fill="#F0F0F0"/>
<path d="M9.49992 54.9856H205V57.9856H9.49992C8.67149 57.9856 7.99992 57.314 7.99992 56.4856C7.99992 55.6572 8.67149 54.9856 9.49992 54.9856Z" fill="#F0F0F0"/>
</svg>
