<svg xmlns="http://www.w3.org/2000/svg" width="24" height="24" fill="none" viewBox="0 0 24 24">
    <mask id="c89zj0lyxa" width="24" height="24" x="1.65" y="1.4" fill="#000" maskUnits="userSpaceOnUse">
        <path fill="#fff" d="M1.65 1.4H22.65V23.4H1.65z"/>
        <path fill-rule="evenodd" d="M19.123 12.936c.036-.3.06-.612.06-.936 0-.324-.024-.636-.072-.936l2.028-1.584c.18-.144.228-.408.12-.612l-1.92-3.324c-.12-.216-.372-.288-.588-.216l-2.388.96c-.504-.384-1.032-.696-1.62-.936l-.36-2.544c-.036-.24-.24-.408-.48-.408h-3.84c-.24 0-.432.168-.468.408l-.36 2.544c-.588.24-1.128.564-1.62.936l-2.388-.96c-.216-.084-.468 0-.588.216l-1.92 3.324c-.12.216-.072.468.12.612l2.028 1.584c-.048.3-.084.624-.084.936 0 .312.024.636.072.936L2.827 14.52c-.18.144-.228.408-.12.612l1.92 3.324c.12.216.372.288.588.216l2.388-.96c.504.384 1.032.696 1.62.936l.36 2.544c.048.24.24.408.48.408h3.84c.24 0 .444-.168.468-.408l.36-2.544c.588-.24 1.128-.564 1.62-.936l2.388.96c.216.084.468 0 .588-.216l1.92-3.324c.12-.216.072-.468-.12-.612l-2.004-1.584zm-7.14 2.664c-1.98 0-3.6-1.62-3.6-3.6s1.62-3.6 3.6-3.6 3.6 1.62 3.6 3.6-1.62 3.6-3.6 3.6z" clip-rule="evenodd"/>
    </mask>
    <path fill="#222" d="M19.111 11.064l-.616-.788-.465.363.094.583.987-.158zm2.028-1.584l.616.788.009-.007-.625-.781zm.12-.612l.884-.468-.009-.016-.01-.016-.865.5zm-1.92-3.324l-.874.486.004.007.004.007.866-.5zm-.588-.216l-.316-.949-.029.01-.028.011.373.928zm-2.388.96l-.606.795.452.345.527-.212-.373-.928zm-1.62-.936l-.99.14.08.569.532.217.378-.926zm-.36-2.544l.99-.14-.001-.008-.989.148zm-4.788 0l-.989-.148-.001.008.99.14zm-.36 2.544l.378.926.532-.217.08-.569-.99-.14zm-1.62.936l-.373.928.525.21.451-.34-.603-.798zm-2.388-.96L5.6 4.4l-.01-.004-.363.932zm-.588.216l.866.5.004-.007.004-.007-.874-.486zm-1.92 3.324l-.866-.5-.004.007-.004.007.874.486zm.12.612l.616-.788-.008-.006-.008-.006-.6.8zm2.028 1.584l.987.158.094-.583-.465-.363-.616.788zm-.012 1.872l.616.788.465-.363-.094-.583-.987.158zM2.827 14.52l-.616-.788-.009.007.625.781zm-.12.612l-.884.468.009.016.01.016.865-.5zm1.92 3.324l.874-.486-.004-.007-.004-.007-.866.5zm.588.216l.316.949.029-.01.028-.011-.373-.928zm2.388-.96l.606-.795-.452-.345-.527.212.373.928zm1.62.936l.99-.14-.08-.569-.532-.217-.378.926zm.36 2.544l-.99.14.004.028.005.028.981-.196zm4.788 0l-.99-.14-.003.02-.002.02.995.1zm.36-2.544l-.378-.926-.532.217-.08.569.99.14zm1.62-.936l.373-.928-.525-.21-.451.34.603.798zm2.388.96l-.373.928.01.004.363-.932zm.588-.216l-.866-.5-.004.007-.004.007.874.486zm1.92-3.324l.866.5.004-.007.004-.007-.874-.486zm-.12-.612l-.62.785.01.007.01.008.6-.8zm-1.011-1.465c.04-.329.067-.682.067-1.055h-2c0 .275-.02.546-.053.817l1.986.238zM20.183 12c0-.373-.028-.738-.084-1.094l-1.975.316c.039.244.059.503.059.778h2zm-.456-.148l2.028-1.584-1.232-1.576-2.027 1.584 1.23 1.576zm2.037-1.591c.575-.46.7-1.256.379-1.86l-1.768.935c-.104-.197-.076-.465.14-.637l1.249 1.562zm.36-1.893l-1.92-3.324-1.73 1 1.92 3.324 1.73-1zm-1.91-3.31c-.388-.696-1.175-.88-1.78-.679l.633 1.898c-.172.057-.455.017-.602-.247l1.748-.972zM18.377 4.4l-2.388.96.746 1.856 2.388-.96-.746-1.856zm-1.409 1.093c-.566-.432-1.17-.79-1.848-1.067l-.756 1.852c.498.203.95.469 1.392.805l1.212-1.59zm-1.236-.281l-.36-2.544-1.98.28.36 2.544 1.98-.28zm-.361-2.552c-.112-.749-.754-1.26-1.469-1.26v2c-.235 0-.469-.175-.509-.444l1.978-.296zM13.903 1.4h-3.84v2h3.84v-2zm-3.84 0c-.747 0-1.35.542-1.457 1.26l1.978.296c-.016.108-.073.223-.174.311-.102.09-.228.133-.347.133v-2zM8.605 2.668l-.36 2.544 1.98.28.36-2.544-1.98-.28zm.252 1.758c-.68.278-1.296.649-1.845 1.064l1.206 1.596c.435-.329.9-.606 1.395-.808l-.756-1.852zm-.869.934L5.6 4.4l-.746 1.856 2.388.96.746-1.856zm-2.399-.964c-.676-.263-1.459.004-1.824.662l1.748.972c-.125.226-.404.325-.648.23l.724-1.864zm-1.816.648l-1.92 3.324 1.732 1 1.92-3.324-1.732-1zM1.845 8.382c-.347.625-.223 1.435.394 1.898l1.2-1.6c.102.076.178.194.205.33.026.134-.002.255-.05.344l-1.75-.972zm.378 1.886l2.028 1.584 1.232-1.576-2.028-1.584-1.232 1.576zm1.657.638c-.053.33-.097.71-.097 1.094h2c0-.24.028-.508.071-.778l-1.974-.316zM3.783 12c0 .36.028.738.085 1.094l1.974-.316c-.038-.244-.059-.514-.059-.778h-2zm.456.148l-2.028 1.584 1.232 1.576 2.028-1.584-1.232-1.576zm-2.037 1.591c-.575.46-.7 1.256-.379 1.86l1.768-.935c.104.197.076.465-.14.637l-1.249-1.562zm-.36 1.893l1.92 3.324 1.73-1-1.92-3.324-1.73 1zm1.91 3.31c.388.696 1.175.88 1.78.679l-.633-1.898c.172-.057.455-.017.602.247l-1.748.972zm1.836.658l2.388-.96-.746-1.856-2.388.96.746 1.856zm1.409-1.093c.566.432 1.17.79 1.848 1.067l.756-1.852c-.498-.203-.95-.469-1.392-.805l-1.212 1.59zm1.236.281l.36 2.544 1.98-.28-.36-2.544-1.98.28zm.37 2.6c.133.67.706 1.212 1.46 1.212v-2c.12 0 .243.045.339.127.093.08.144.18.162.269l-1.962.392zm1.46 1.212h3.84v-2h-3.84v2zm3.84 0c.705 0 1.383-.51 1.463-1.309l-1.99-.198c.032-.32.302-.493.527-.493v2zm1.458-1.268l.36-2.544-1.98-.28-.36 2.544 1.98.28zm-.252-1.758c.68-.278 1.296-.649 1.845-1.064l-1.206-1.596c-.435.329-.9.606-1.395.808l.756 1.852zm.869-.934l2.388.96.746-1.856-2.388-.96-.746 1.856zm2.399.964c.676.263 1.459-.004 1.824-.662l-1.748-.972c.125-.226.404-.325.649-.23l-.725 1.864zm1.816-.648l1.92-3.324-1.732-1-1.92 3.324 1.732 1zm1.928-3.338c.347-.625.223-1.435-.394-1.898l-1.2 1.6c-.102-.076-.178-.194-.205-.33-.026-.134.002-.255.05-.344l1.75.972zm-.374-1.883l-2.004-1.583-1.24 1.569 2.004 1.584 1.24-1.57zm-9.764.865c-1.428 0-2.6-1.172-2.6-2.6h-2c0 2.532 2.068 4.6 4.6 4.6v-2zm-2.6-2.6c0-1.428 1.172-2.6 2.6-2.6v-2c-2.532 0-4.6 2.068-4.6 4.6h2zm2.6-2.6c1.428 0 2.6 1.172 2.6 2.6h2c0-2.532-2.068-4.6-4.6-4.6v2zm2.6 2.6c0 1.428-1.172 2.6-2.6 2.6v2c2.532 0 4.6-2.068 4.6-4.6h-2z" mask="url(#c89zj0lyxa)"/>
</svg>
