<svg width="16" height="16" viewBox="0 0 16 16" fill="none" xmlns="http://www.w3.org/2000/svg">
<path d="M13.1352 2.7643C13.2653 2.89447 13.2653 3.10553 13.1352 3.2357L8.42111 7.94975L13.1352 12.6638C13.2653 12.794 13.2653 13.005 13.1352 13.1352C13.005 13.2654 12.7939 13.2654 12.6638 13.1352L7.94971 8.42115L3.23566 13.1352C3.10549 13.2654 2.89443 13.2654 2.76426 13.1352C2.63408 13.005 2.63408 12.794 2.76426 12.6638L7.4783 7.94975L2.76426 3.2357C2.63408 3.10553 2.63408 2.89447 2.76426 2.7643C2.89443 2.63412 3.10549 2.63412 3.23566 2.7643L7.94971 7.47834L12.6638 2.7643C12.7939 2.63412 13.005 2.63412 13.1352 2.7643Z" fill="#ffffff"/>
</svg>
