<svg xmlns="http://www.w3.org/2000/svg" width="24" height="24" viewBox="0 0 24 24">
    <g fill="none" fill-rule="evenodd">
        <g fill="#222" fill-rule="nonzero">
            <g>
                <g>
                    <path d="M19 14c.78 0 1.42.595 1.493 1.356l.007.144v1c0 .78-.595 1.42-1.356 1.493L19 18H6c-.78 0-1.42-.595-1.493-1.356L4.5 16.5v-1c0-.78.595-1.42 1.356-1.493L6 14h13zM6.687 15H6c-.215 0-.398.135-.469.326l-.023.084-.008.09v1c0 .245.177.45.41.492L6 17h.687v-2zM19 15H7.687v2H19c.245 0 .45-.177.492-.41l.008-.09v-1c0-.245-.177-.45-.41-.492L19 15zM7.5 4.5c.276 0 .5.224.5.5 0 1.001-.352 2.234-1.056 3.73C6.31 9.946 6 11.036 6 12c0 .276-.224.5-.5.5S5 12.276 5 12c0-1.14.355-2.384 1.048-3.713C6.686 6.93 7 5.83 7 5c0-.276.224-.5.5-.5zm3 0c.276 0 .5.224.5.5 0 1.097-.473 2.274-1.397 3.532l-.205.27C8.458 10.04 8 11.11 8 12c0 .276-.224.5-.5.5S7 12.276 7 12c0-1.143.542-2.407 1.605-3.807C9.543 6.988 10 5.922 10 5c0-.276.224-.5.5-.5z" transform="translate(-814 -493) translate(806 489) translate(8 4)"/>
                </g>
            </g>
        </g>
    </g>
</svg>
