<svg xmlns="http://www.w3.org/2000/svg" width="24" height="24" fill="none" viewBox="0 0 24 24">
    <path stroke="#000" stroke-linejoin="round" stroke-width=".7" d="M19.125 3H4.875c-.696.002-1.362.28-1.854.771-.492.492-.769 1.158-.771 1.854v9c.002.696.28 1.362.771 1.854.492.492 1.158.769 1.854.771H6.75V21l4.393-3.663c.068-.056.153-.087.24-.087h7.742c.696-.002 1.362-.28 1.854-.771.492-.492.769-1.158.771-1.854v-9c-.002-.696-.28-1.362-.771-1.854-.492-.492-1.158-.769-1.854-.771z"/>
    <path fill="#000" d="M7 11c.552 0 1-.448 1-1s-.448-1-1-1-1 .448-1 1 .448 1 1 1zM12 11c.552 0 1-.448 1-1s-.448-1-1-1-1 .448-1 1 .448 1 1 1zM17 11c.552 0 1-.448 1-1s-.448-1-1-1-1 .448-1 1 .448 1 1 1z"/>
</svg>
