<svg width="16" height="16" viewBox="0 0 16 16" fill="none" xmlns="http://www.w3.org/2000/svg">
<path d="M8.00002 3.33334C10.9455 3.33334 13.3334 5.72115 13.3334 8.66667C13.3334 11.6122 10.9455 14 8.00002 14C5.0545 14 2.66669 11.6122 2.66669 8.66667C2.66669 5.72115 5.0545 3.33334 8.00002 3.33334ZM8.00002 4C5.42269 4 3.33336 6.08934 3.33336 8.66667C3.33336 11.244 5.42269 13.3333 8.00002 13.3333C10.5774 13.3333 12.6667 11.244 12.6667 8.66667C12.6667 6.08934 10.5774 4 8.00002 4ZM8.00002 6.33334C8.16366 6.33334 8.29976 6.45125 8.32799 6.60675L8.33336 6.66667V8.33334H9.33336C9.497 8.33334 9.6331 8.45125 9.66132 8.60675L9.66669 8.66667C9.66669 8.83031 9.54877 8.96641 9.39327 8.99463L9.33336 9H8.00002C7.83638 9 7.70028 8.88209 7.67206 8.72659L7.66669 8.66667V6.66667C7.66669 6.48257 7.81593 6.33334 8.00002 6.33334ZM4.93627 2.47061C5.03252 2.60295 5.0172 2.78238 4.90805 2.89666L4.86275 2.93625L3.02941 4.26958C2.88053 4.37786 2.67206 4.34494 2.56378 4.19606C2.46753 4.06372 2.48284 3.8843 2.592 3.77001L2.6373 3.73042L4.47063 2.39709C4.61952 2.28881 4.82799 2.32173 4.93627 2.47061ZM11.4778 2.36619L11.5294 2.39709L13.3627 3.73042C13.5116 3.8387 13.5445 4.04718 13.4363 4.19606C13.34 4.3284 13.1646 4.36911 13.0222 4.30048L12.9706 4.26958L11.1373 2.93625C10.9884 2.82797 10.9555 2.6195 11.0638 2.47061C11.16 2.33827 11.3354 2.29756 11.4778 2.36619Z" fill="#222222"/>
</svg>
