<svg width="16" height="16" viewBox="0 0 16 16" fill="none" xmlns="http://www.w3.org/2000/svg">
<path d="M5.43076 5.61538C5.61486 5.61538 5.76409 5.76462 5.76409 5.94872C5.76409 6.11236 5.64618 6.24846 5.49068 6.27668L5.43076 6.28205H4.14871C3.65557 6.28205 3.25031 6.65831 3.20433 7.1394L3.19999 7.23077V13.3846C3.19999 13.8778 3.57625 14.283 4.05734 14.329L4.14871 14.3333H11.841C12.3342 14.3333 12.7394 13.9571 12.7854 13.476L12.7897 13.3846V7.23077C12.7897 6.73763 12.4135 6.33237 11.9324 6.28639L11.841 6.28205H10.559C10.3749 6.28205 10.2256 6.13281 10.2256 5.94872C10.2256 5.78508 10.3435 5.64898 10.499 5.62076L10.559 5.61538H11.841C12.6975 5.61538 13.3983 6.28192 13.453 7.12456L13.4564 7.23077V13.3846C13.4564 14.2411 12.7899 14.9419 11.9472 14.9966L11.841 15H4.14871C3.29224 15 2.59145 14.3335 2.53676 13.4908L2.53333 13.3846V7.23077C2.53333 6.3743 3.19986 5.67351 4.0425 5.61882L4.14871 5.61538H5.43076ZM7.95207 1.00274L8.01217 1C8.13674 1 8.24534 1.06833 8.30256 1.16955L10.7947 3.66173C10.9248 3.79191 10.9248 4.00296 10.7947 4.13314C10.679 4.24885 10.4993 4.26171 10.3694 4.17171L10.3233 4.13314L8.34533 2.156L8.3455 10.0833C8.3455 10.2674 8.19627 10.4167 8.01217 10.4167C7.84853 10.4167 7.71243 10.2987 7.68421 10.1433L7.67884 10.0833L7.67866 2.12L5.66646 4.13314C5.55075 4.24885 5.37114 4.26171 5.24122 4.17171L5.19506 4.13314C5.07935 4.01743 5.06649 3.83781 5.15649 3.7079L5.19506 3.66173L7.75916 1.09763C7.81334 1.04345 7.88153 1.01182 7.95207 1.00274Z" fill="#222222"/>
</svg>
