<svg width="16" height="16" viewBox="0 0 16 16" fill="none" xmlns="http://www.w3.org/2000/svg">
<path d="M8.00026 3.83334C9.23931 3.83334 10.5675 4.00873 11.2931 4.37164C11.6908 4.57052 11.982 4.88902 12.2441 5.34458L12.3305 5.50153C12.3682 5.57315 12.4412 5.72366 12.5128 5.8722C12.5413 5.85593 12.5731 5.84481 12.6067 5.83871L12.6666 5.83334H13.3333C13.5174 5.83334 13.6666 5.98258 13.6666 6.16668C13.6666 6.33032 13.5487 6.46642 13.3932 6.49464L13.3333 6.50001L12.8746 6.50028C12.9427 6.56682 13.0306 6.63269 13.1423 6.70245L13.2466 6.76469L13.4132 6.85719L13.7084 7.0264C13.8315 7.10479 13.9229 7.18018 13.9924 7.27303C14.25 7.6191 14.401 9.32599 14.3065 10.2402C14.281 10.4862 14.2476 10.718 14.2082 10.9342C14.1505 11.2505 14.0918 11.4775 14.0507 11.6034C14.0123 11.721 13.9129 11.8059 13.7944 11.8278L13.7338 11.8333H13.6664L13.6666 12.1667C13.6666 12.3303 13.5487 12.4664 13.3932 12.4946L13.3333 12.5H12C11.8363 12.5 11.7002 12.3821 11.672 12.2266L11.6666 12.1667L11.6664 11.8333H11.4569C11.3774 11.8333 11.3041 11.8282 11.2302 11.8179L11.1181 11.7984L10.6943 11.6965L10.5735 11.6726C10.4492 11.65 10.3134 11.6314 10.1538 11.6161C9.42623 11.5466 8.59654 11.5098 8.00026 11.5098C7.41215 11.5098 6.60466 11.5462 5.87263 11.6162C5.71216 11.6314 5.57592 11.65 5.4514 11.6728L5.3303 11.6969L4.91612 11.7971C4.83839 11.8133 4.76473 11.824 4.68804 11.8293L4.56988 11.8333H4.33304L4.3333 12.1667C4.3333 12.3303 4.21539 12.4664 4.05989 12.4946L3.99997 12.5H2.66664C2.503 12.5 2.3669 12.3821 2.33867 12.2266L2.3333 12.1667L2.33304 11.8333H2.26617C2.14253 11.8333 2.03091 11.7652 1.97336 11.6593L1.94929 11.6034L1.91018 11.471C1.87473 11.3405 1.83303 11.1601 1.7918 10.9342C1.75235 10.718 1.71897 10.4862 1.69352 10.2402C1.59877 9.3242 1.74973 7.61829 2.00869 7.27233C2.07708 7.18095 2.16757 7.10595 2.28918 7.02811L2.38395 6.97159L2.76981 6.7549L2.86385 6.69804C2.97236 6.62976 3.0582 6.5652 3.1251 6.50009L2.66664 6.50001C2.48254 6.50001 2.3333 6.35077 2.3333 6.16668C2.3333 6.00304 2.45122 5.86694 2.60672 5.83871L2.66664 5.83334H3.3333C3.38916 5.83334 3.44181 5.84708 3.48806 5.87137L3.52039 5.80392L3.67085 5.49942C3.9553 4.96062 4.26562 4.59239 4.70707 4.371C5.43292 4.00696 6.7544 3.83334 8.00026 3.83334ZM7.99997 6.50001C6.51395 6.50001 5.34 6.62244 4.44602 6.8251C3.97168 6.93262 3.67523 7.03673 3.53202 7.10591L3.49363 7.12559C3.45297 7.14789 3.40969 7.16083 3.36628 7.16513C3.31401 7.20173 3.25808 7.2384 3.19825 7.2753L3.10554 7.33086L3.07996 7.34539L2.98403 7.39889C2.88648 7.45318 2.75702 7.52527 2.68655 7.56665L2.60814 7.61665C2.5724 7.64174 2.55063 7.66083 2.5424 7.67181C2.41833 7.83757 2.27858 9.41685 2.35665 10.1716C2.3803 10.4002 2.41123 10.6149 2.44764 10.8145L2.46987 10.9315L2.52064 11.1667H4.56988L4.64126 11.1643L4.70969 11.157L4.7804 11.1444L5.18935 11.0453C5.37268 11.0057 5.56963 10.9752 5.8095 10.9525C6.56292 10.8805 7.39152 10.8431 8.00026 10.8431C8.61703 10.8431 9.4678 10.8808 10.2172 10.9525C10.396 10.9696 10.551 10.9908 10.6944 11.017L10.8882 11.0569L11.2519 11.1453L11.3209 11.1574L11.3875 11.1644L11.4569 11.1667H13.4786L13.5155 11.0035L13.5523 10.8145C13.5888 10.6149 13.6197 10.4002 13.6433 10.1716C13.7213 9.41785 13.5815 7.8375 13.4581 7.67181L13.423 7.63937C13.4141 7.63235 13.4036 7.62457 13.3915 7.61612L13.3127 7.56611L12.8952 7.33181L12.7668 7.25393C12.7197 7.22411 12.6751 7.19422 12.6329 7.16397C12.6045 7.16188 12.5758 7.15543 12.5477 7.14476L12.5063 7.12559C12.3822 7.05751 12.0757 6.94337 11.5539 6.8251C10.6599 6.62244 9.48599 6.50001 7.99997 6.50001ZM8.33865 8.83334C8.94937 8.83334 9.19847 8.86082 9.88151 8.96682C10.5645 9.07282 11.0804 9.231 11.2387 9.42053C11.5272 9.76019 11.097 10.0918 10.7338 10.1376C10.5669 10.1573 10.3209 10.1643 9.96626 10.1661L9.42653 10.1662C9.1219 10.1655 8.76318 10.1639 8.3416 10.1639C7.92002 10.1639 7.56129 10.1655 7.25666 10.1662L6.71693 10.1661C6.36234 10.1643 6.11634 10.1573 5.94936 10.1376C5.58561 10.0943 5.12222 9.73799 5.43856 9.42053C5.64936 9.2113 6.14088 9.05479 6.79552 8.96682C7.45017 8.87885 7.72794 8.83334 8.33865 8.83334ZM12.4894 7.50015L12.5783 7.5019C12.6195 7.5032 12.6529 7.5301 12.6558 7.56432C12.6736 7.67865 12.6694 7.79459 12.6436 7.90784C12.5928 8.10426 12.3196 8.16668 12.0548 8.16668C11.6136 8.1665 11.1727 8.14496 10.7344 8.10218C10.6629 8.09156 10.6426 7.99148 10.6996 7.95445C10.9256 7.81317 11.1803 7.70702 11.4516 7.6411C11.9833 7.51064 12.2831 7.49316 12.5783 7.5019L12.4894 7.50015ZM4.54834 7.6411C4.81962 7.70702 5.07437 7.81317 5.30032 7.95445C5.35732 7.99148 5.33707 8.09156 5.26557 8.10218C4.82729 8.14496 4.38639 8.1665 3.9451 8.16668C3.68036 8.16668 3.40712 8.10426 3.35637 7.90784C3.33049 7.79459 3.32636 7.67865 3.34412 7.56432C3.34702 7.5301 3.38043 7.5032 3.42162 7.5019C3.71686 7.49316 4.0166 7.51064 4.54834 7.6411ZM8.00026 4.50001C6.85248 4.50001 5.61193 4.663 5.00594 4.96692C4.71324 5.11371 4.48598 5.38338 4.2604 5.81066L4.13448 6.06563C4.10799 6.12039 4.08013 6.17826 4.05294 6.23467C4.12922 6.21452 4.2115 6.19468 4.29863 6.17492C5.24273 5.96091 6.46593 5.83334 7.99997 5.83334C9.53401 5.83334 10.7572 5.96091 11.7013 6.17492L11.9493 6.2346L11.7408 5.8126C11.5148 5.38414 11.2874 5.11418 10.9949 4.96789C10.3887 4.66467 9.1417 4.50001 8.00026 4.50001Z" fill="#222222"/>
</svg>
