<svg xmlns="http://www.w3.org/2000/svg" width="24" height="24" fill="none" viewBox="0 0 24 24">
    <path fill="#222" d="M12 2c5.523 0 10 4.477 10 10s-4.477 10-10 10S2 17.523 2 12 6.477 2 12 2zm0 1c-4.97 0-9 4.03-9 9s4.03 9 9 9 9-4.03 9-9-4.03-9-9-9zM7.25 9.286c.282 0 .541.04.777.12.235.08.437.192.605.335.168.142.3.314.394.515.095.2.142.42.142.661-.005.196-.044.385-.118.568-.073.183-.166.357-.28.523-.114.165-.242.325-.386.48l-.218.23-.225.222-1.26 1.173.16-.031.154-.018.147-.008.141-.003h1.95V15H5v-.601l2.04-1.858.177-.169c.226-.222.41-.431.554-.628.179-.245.268-.513.268-.804 0-.26-.077-.457-.232-.59-.154-.133-.364-.2-.63-.2-.227 0-.42.062-.576.185-.157.122-.268.266-.333.432-.022.055-.037.113-.045.173l-.011.096-.01.107-1.064-.166.036-.186c.11-.483.334-.847.671-1.092.38-.275.848-.413 1.406-.413zm6.314.037v3.466h.764v.85h-.764V15h-.983v-1.36H9.705v-.843l.706-.862 2.105-2.612h1.048zM16.213 9v1.511l-.049.79.192-.155c.133-.099.276-.19.43-.274.23-.125.5-.188.808-.188.493 0 .85.15 1.073.448.194.26.303.61.328 1.05l.005.194V15h-1.194v-2.489l-.005-.154c-.013-.245-.062-.421-.146-.53-.1-.13-.264-.195-.491-.195-.19 0-.352.04-.488.12-.101.06-.214.141-.336.244l-.127.11V15h-1.186V9h1.186zm-3.616 1.579l-1.787 2.226h1.771l.002-1.86.014-.366z"/>
</svg>
