<svg width="16" height="16" viewBox="0 0 16 16" fill="none" xmlns="http://www.w3.org/2000/svg">
<path d="M12.3333 4C12.8856 4 13.3333 4.44772 13.3333 5C13.3333 5.55228 12.8856 6 12.3333 6H10.6666C10.6666 6.73638 10.0697 7.33333 9.33329 7.33333H8.33329L8.33368 10.121C9.51018 10.2469 10.567 11.0321 10.9815 12.2238C11.0419 12.3977 10.95 12.5877 10.7761 12.6482C10.6022 12.7086 10.4123 12.6167 10.3518 12.4428C10.0332 11.5267 9.2333 10.9151 8.3338 10.7927L8.33329 12.3333C8.33329 12.5174 8.18405 12.6667 7.99996 12.6667C7.83632 12.6667 7.70022 12.5487 7.672 12.3933L7.66663 12.3333L7.66711 10.7926C7.50495 10.8147 7.34257 10.8531 7.18203 10.9089C6.46318 11.1589 5.89814 11.724 5.64813 12.4428C5.58766 12.6167 5.39768 12.7086 5.2238 12.6482C5.04992 12.5877 4.95798 12.3977 5.01846 12.2238C5.3354 11.3125 6.05172 10.5962 6.96304 10.2793C7.19585 10.1983 7.43172 10.1462 7.66673 10.121L7.66663 7.33333H6.66663C5.93025 7.33333 5.33329 6.73638 5.33329 6H3.66663C3.11434 6 2.66663 5.55228 2.66663 5C2.66663 4.44772 3.11434 4 3.66663 4H12.3333ZM9.99996 6H5.99996C5.99996 6.34189 6.25732 6.62367 6.58888 6.66218L6.66663 6.66667H9.33329C9.67518 6.66667 9.95696 6.40931 9.99547 6.07775L9.99996 6ZM12.3333 4.66667H3.66663C3.48253 4.66667 3.33329 4.81591 3.33329 5C3.33329 5.16364 3.45121 5.29974 3.60671 5.32796L3.66663 5.33333H12.3333C12.5174 5.33333 12.6666 5.18409 12.6666 5C12.6666 4.83636 12.5487 4.70026 12.3932 4.67204L12.3333 4.66667Z" fill="#222222"/>
</svg>
