<svg xmlns="http://www.w3.org/2000/svg" width="24" height="24" fill="none" viewBox="0 0 24 24">
    <path fill="#222" fill-rule="evenodd" d="M9 4.5c-.398 0-.78.158-1.06.44-.282.28-.44.662-.44 1.06v13.117l4.243-2.546c.158-.095.356-.095.514 0l4.243 2.546V6c0-.398-.158-.78-.44-1.06-.28-.282-.662-.44-1.06-.44H9zm-1.768-.268C7.702 3.763 8.337 3.5 9 3.5h6c.663 0 1.299.263 1.768.732.469.47.732 1.105.732 1.768v14c0 .18-.097.346-.254.435-.156.089-.349.086-.503-.006L12 17.583 7.257 20.43c-.154.092-.347.095-.503.006-.157-.089-.254-.255-.254-.435V6c0-.663.263-1.299.732-1.768z" clip-rule="evenodd"/>
</svg>
