<svg width="16" height="16" viewBox="0 0 16 16" fill="none" xmlns="http://www.w3.org/2000/svg">
<path d="M13 9.048L8 14L3 9.048H13ZM3 9.048C2.6702 8.72708 2.41043 8.34134 2.23703 7.91509C2.06363 7.48884 1.98037 7.0313 1.99249 6.57129C2.00461 6.11128 2.11184 5.65876 2.30744 5.24223C2.50303 4.82569 2.78275 4.45417 3.12899 4.15105C3.47522 3.84794 3.88047 3.61979 4.31921 3.48099C4.75794 3.34218 5.22067 3.29572 5.67824 3.34454C6.13582 3.39335 6.57833 3.53637 6.97791 3.76461C7.3775 3.99284 7.7255 4.30133 8 4.67067C8.27569 4.30402 8.62409 3.99821 9.0234 3.7724C9.42271 3.54659 9.86433 3.40563 10.3206 3.35835C10.7769 3.31106 11.2381 3.35847 11.6752 3.4976C12.1123 3.63672 12.516 3.86458 12.861 4.16691C13.2061 4.46924 13.4849 4.83952 13.6803 5.2546C13.8756 5.66967 13.9832 6.12059 13.9962 6.57914C14.0092 7.03769 13.9275 7.494 13.7561 7.9195C13.5847 8.34501 13.3273 8.73055 13 9.052" fill="#ff665c"/>
</svg>
