<svg xmlns="http://www.w3.org/2000/svg" width="24" height="24" viewBox="0 0 24 24">
    <g fill="none" fill-rule="evenodd">
        <g fill="#222" fill-rule="nonzero">
            <g>
                <g>
                    <path d="M20.726 5.054l.046.026.058.044.045.045.051.07.03.055.021.056.018.078.003.028L21 5.5v13.031l-.012.08-.022.07-.02.045-.026.045-.044.059-.045.045-.07.051-.055.03-.056.021-.066.016L20.5 19c-.038 0-.076-.004-.111-.012l-.07-.022-.045-.02c-2.396-1.215-5.333-1.26-7.77-.135l-.278.135c-.036.018-.075.032-.114.041L12.03 19 12 19c-.039 0-.077-.004-.113-.013l-.068-.02-.045-.021c-2.396-1.215-5.333-1.26-7.77-.135l-.278.135-.057.025-.076.02L3.53 19l-.082-.002-.074-.013-.081-.029-.072-.04-.035-.025-.063-.06-.04-.051-.03-.053-.025-.057-.024-.097-.003-.026L3 5.5l.005-.066.01-.06.03-.08.04-.072.025-.035.043-.047.068-.055.053-.031c2.673-1.355 5.937-1.404 8.653-.145l.073.035.073-.035c2.716-1.259 5.98-1.21 8.653.145zm-8.225.759l-.001 11.91c2.38-.964 5.121-.964 7.501.001L20 5.813c-2.348-1.084-5.156-1.083-7.5 0zm-8.5 0L4 17.723c2.38-.964 5.121-.964 7.501.001L11.5 5.813c-2.348-1.084-5.156-1.083-7.5 0zm5.99 7.733c.242.133.33.437.197.679-.132.242-.436.33-.678.198-1.09-.598-2.671-.524-3.497-.014-.235.146-.543.073-.688-.162-.145-.235-.073-.543.162-.688 1.125-.696 3.09-.788 4.504-.013zm8.5 0c.242.133.33.437.197.679-.132.242-.436.33-.678.198-1.09-.598-2.671-.524-3.497-.014-.235.146-.543.073-.688-.162-.145-.235-.073-.543.162-.688 1.125-.696 3.09-.788 4.504-.013zm-8.5-3c.242.133.33.437.197.679-.132.242-.436.33-.678.198-1.09-.598-2.671-.524-3.497-.014-.235.146-.543.073-.688-.162-.145-.235-.073-.543.162-.688 1.125-.696 3.09-.788 4.504-.013zm8.5 0c.242.133.33.437.197.679-.132.242-.436.33-.678.198-1.09-.598-2.671-.524-3.497-.014-.235.146-.543.073-.688-.162-.145-.235-.073-.543.162-.688 1.125-.696 3.09-.788 4.504-.013zm-8.5-3c.242.133.33.437.197.679-.132.242-.436.33-.678.198-1.09-.598-2.671-.524-3.497-.014-.235.146-.543.073-.688-.162-.145-.235-.073-.543.162-.688 1.125-.696 3.09-.788 4.504-.013zm8.5 0c.242.133.33.437.197.679-.132.242-.436.33-.678.198-1.09-.598-2.671-.524-3.497-.014-.235.146-.543.073-.688-.162-.145-.235-.073-.543.162-.688 1.125-.696 3.09-.788 4.504-.013z" transform="translate(-814 -405) translate(806 401) translate(8 4)"/>
                </g>
            </g>
        </g>
    </g>
</svg>
