<svg width="16" height="16" viewBox="0 0 16 16" fill="none" xmlns="http://www.w3.org/2000/svg">
<path d="M7.56899 2.41816C7.68471 2.53387 7.69756 2.71348 7.60756 2.8434L7.56899 2.88956L2.79196 7.66653L14.0121 7.66668C14.1895 7.66668 14.3333 7.81592 14.3333 8.00001C14.3333 8.16365 14.2197 8.29975 14.0698 8.32798L14.0121 8.33335L2.81729 8.33319L7.56899 13.0848C7.68471 13.2005 7.69756 13.3802 7.60756 13.5101L7.56899 13.5562C7.45328 13.6719 7.27367 13.6848 7.14376 13.5948L7.09759 13.5562L1.8321 8.29162C1.73895 8.23793 1.67423 8.13758 1.66725 8.02099L1.66663 7.98753C1.66663 7.92107 1.68625 7.85459 1.72569 7.79766L1.76426 7.75149L7.09759 2.41816C7.22776 2.28798 7.43882 2.28798 7.56899 2.41816Z" fill="#222222"/>
</svg>
