<svg xmlns="http://www.w3.org/2000/svg" width="24" height="24" viewBox="0 0 24 24">
    <g fill="none" fill-rule="evenodd">
        <g fill="#222" fill-rule="nonzero">
            <g>
                <path d="M15.033 3.433c.306-.23.734-.043.793.315l.007.085v16c0 .383-.405.613-.727.446l-.073-.046L10.72 17 6 17c-1.27 0-2.32-.947-2.479-2.174l-.016-.162L3.5 14.5v-5c0-1.325 1.032-2.41 2.336-2.495L6 7l4.278-.001 4.755-3.566zm-.2 1.4l-4.088 3.066c-.065.049-.14.08-.22.094l-.08.006L6 8c-.78 0-1.42.595-1.493 1.356L4.5 9.5v5c0 .78.595 1.42 1.355 1.493L6 16h4.888c.081 0 .16.02.232.056l.068.043 3.645 2.734v-14zm3.95 3.426c1.988 2.238 1.988 5.61 0 7.847-.184.206-.5.225-.707.042-.206-.184-.225-.5-.041-.706 1.652-1.859 1.652-4.66 0-6.518-.184-.207-.165-.523.041-.706.207-.184.523-.165.706.041z" transform="translate(-573 -44) translate(573 44)"/>
            </g>
        </g>
    </g>
</svg>
