<svg width="16" height="16" viewBox="0 0 16 16" fill="none" xmlns="http://www.w3.org/2000/svg">
<path d="M6.07778 6.33334C6.52648 6.33334 6.88582 6.69475 6.92898 7.14767L6.93333 7.2394V9.66364C6.93333 9.71993 6.91751 9.77469 6.8882 9.8219L6.85448 9.86636L6.37733 10.386L6.37778 13.3C6.37778 13.4473 6.27165 13.5698 6.1317 13.5952L6.07778 13.6C5.9305 13.6 5.80801 13.4939 5.78261 13.3539L5.77778 13.3V10.2697C5.77778 10.2134 5.7936 10.1586 5.82291 10.1114L5.85663 10.067L6.33333 9.54667V7.2394C6.33333 7.08422 6.2381 6.96309 6.12211 6.93809L6.07778 6.93334H3.85556C3.73553 6.93334 3.62696 7.03722 3.60432 7.18292L3.6 7.2394V9.54734L4.0767 10.067C4.11474 10.1085 4.14008 10.1595 4.15037 10.2141L4.15556 10.2697V13.3C4.15556 13.4657 4.02124 13.6 3.85556 13.6C3.70828 13.6 3.58579 13.4939 3.56039 13.3539L3.55556 13.3L3.55533 10.386L3.07885 9.86636C3.04081 9.82486 3.01548 9.7738 3.00519 9.7192L3 9.66364V7.2394C3 6.77547 3.33129 6.38507 3.76707 6.33808L3.85556 6.33334H6.07778ZM11.5502 6.33334C12.0118 6.33334 12.387 6.6949 12.4295 7.15253L12.4309 7.184L13.5859 10.7841C13.6423 10.9601 13.5281 11.1398 13.3541 11.171L13.3002 11.1758L12.4335 11.1753V13.3C12.4335 13.4473 12.3274 13.5698 12.1875 13.5952L12.1336 13.6C11.9863 13.6 11.8638 13.4939 11.8384 13.3539L11.8336 13.3V10.8758C11.8336 10.7285 11.9397 10.606 12.0796 10.5806L12.1336 10.5758L12.8882 10.5753L11.8479 7.33105L11.8336 7.2394C11.8336 7.08692 11.7313 6.96369 11.6005 6.93819L11.5502 6.93334H10.3836C10.2468 6.93334 10.1293 7.03962 10.1049 7.18372L10.1002 7.2394L10.0859 7.33105L9.04488 10.5753L9.80022 10.5758C9.94749 10.5758 10.07 10.6819 10.0954 10.8218L10.1002 10.8758V13.3C10.1002 13.4657 9.9659 13.6 9.80022 13.6C9.65294 13.6 9.53045 13.4939 9.50505 13.3539L9.50022 13.3V11.1753L8.63355 11.1758C8.44869 11.1758 8.31252 11.0121 8.33596 10.8369L8.34789 10.7841L9.50288 7.18267L9.50424 7.15253C9.54412 6.7235 9.87634 6.37891 10.2981 6.33751L10.3836 6.33334H11.5502ZM5 2.66667C5.73638 2.66667 6.33333 3.26363 6.33333 4.00001C6.33333 4.73638 5.73638 5.33334 5 5.33334C4.26362 5.33334 3.66667 4.73638 3.66667 4.00001C3.66667 3.26363 4.26362 2.66667 5 2.66667ZM11 2.66667C11.7364 2.66667 12.3333 3.26363 12.3333 4.00001C12.3333 4.73638 11.7364 5.33334 11 5.33334C10.2636 5.33334 9.66667 4.73638 9.66667 4.00001C9.66667 3.26363 10.2636 2.66667 11 2.66667ZM5 3.26667C4.59499 3.26667 4.26667 3.595 4.26667 4.00001C4.26667 4.40501 4.59499 4.73334 5 4.73334C5.40501 4.73334 5.73333 4.40501 5.73333 4.00001C5.73333 3.595 5.40501 3.26667 5 3.26667ZM11 3.26667C10.595 3.26667 10.2667 3.595 10.2667 4.00001C10.2667 4.40501 10.595 4.73334 11 4.73334C11.405 4.73334 11.7333 4.40501 11.7333 4.00001C11.7333 3.595 11.405 3.26667 11 3.26667Z" fill="#222222"/>
</svg>
