<svg xmlns="http://www.w3.org/2000/svg" width="24" height="24" viewBox="0 0 24 24">
    <g fill="none" fill-rule="evenodd">
        <g fill="#222" fill-rule="nonzero">
            <g>
                <g>
                    <path d="M13.03 3.5l.524.033c3.104.187 5.785 2.207 6.832 5.115l.096.288.016.087.002.047v7.035c0 .68-.456 1.268-1.1 1.446l-.141.032-13 2.275c-.816.142-1.594-.403-1.737-1.22l-.016-.128-.006-.13v-6.693c-.008-.107.02-.218.092-.316l.062-.07 8-7.662c.08-.077.184-.125.293-.136l.083-.002zm6.47 10.942l-14 2.545v1.415l.007.064c.043.242.252.413.49.414l.09-.007 13-2.275c.209-.037.368-.2.405-.404l.008-.089v-1.663zm0-1.765l-14 2.545v.749l13.97-2.54.03-.003v-.751zm0-3.012l-14 2.45v2.091l13.97-2.54.03-.003V9.665zm-6.313-5.153l-6.659 6.377 12.795-2.213-.078-.183c-.952-2.11-2.929-3.594-5.234-3.911l-.257-.03-.26-.021-.307-.019zM14 5c.828 0 1.5.672 1.5 1.5S14.828 8 14 8s-1.5-.672-1.5-1.5S13.172 5 14 5z" transform="translate(-814 -449) translate(806 445) translate(8 4)"/>
                </g>
            </g>
        </g>
    </g>
</svg>
