<svg xmlns="http://www.w3.org/2000/svg" width="16" height="16" fill="none" viewBox="0 0 16 16">
    <path fill="#222" fill-rule="evenodd" d="M5.643 3.676c-.412-.044-.828-.002-1.223.123-.395.125-.76.33-1.071.603-.312.273-.564.607-.74.982-.176.375-.272.782-.283 1.196-.011.414.064.826.22 1.21.156.383.39.73.686 1.02l.003.001L8 13.531l4.765-4.72c.01-.01.021-.02.033-.028.28-.283.5-.619.649-.988.154-.383.228-.794.216-1.206-.012-.413-.109-.819-.284-1.193-.176-.373-.427-.706-.738-.978-.31-.273-.674-.478-1.067-.603-.393-.125-.808-.168-1.22-.125-.41.042-.807.17-1.167.373-.359.203-.672.478-.92.808-.064.084-.163.133-.268.133-.105 0-.204-.05-.267-.135-.247-.332-.56-.61-.92-.815-.36-.205-.757-.334-1.17-.378zM13.2 9.318l-4.966 4.919c-.13.129-.34.129-.47 0l-4.998-4.95v-.001c-.363-.353-.648-.777-.839-1.245-.19-.47-.282-.973-.269-1.479.014-.506.132-1.003.347-1.461.215-.459.523-.867.903-1.2.381-.334.827-.585 1.31-.738.482-.153.991-.204 1.495-.15.503.054.99.211 1.43.462.318.182.607.411.857.678.25-.264.54-.49.858-.67.44-.25.925-.404 1.427-.456.502-.052 1.01 0 1.49.153.481.153.925.404 1.305.736.38.333.686.74.9 1.197.216.456.334.952.348 1.457.015.504-.075 1.006-.264 1.474-.188.468-.471.892-.832 1.246-.01.01-.02.02-.032.028z" clip-rule="evenodd"/>
</svg>
