<svg xmlns="http://www.w3.org/2000/svg" width="24" height="24" viewBox="0 0 24 24">
    <g fill="none" fill-rule="evenodd">
        <g fill="#222" fill-rule="nonzero">
            <g>
                <path d="M12 5.75c1.859 0 3.851.263 4.94.807.596.299 1.033.777 1.426 1.46l.13.235c.056.108.166.333.273.556.043-.024.09-.04.141-.05L19 8.75h1c.276 0 .5.224.5.5 0 .245-.177.45-.41.492L20 9.75h-.688c.102.1.234.199.401.304l.157.093.25.139.443.254c.184.117.321.23.426.37.386.519.613 3.079.47 4.45-.037.37-.088.717-.147 1.041-.086.475-.174.815-.236 1.004-.057.176-.207.304-.384.337l-.091.008H20.5v.5c0 .245-.177.45-.41.492l-.09.008h-2c-.245 0-.45-.177-.492-.41l-.008-.09v-.5h-.315c-.119 0-.229-.008-.34-.023l-.168-.03-.635-.152-.182-.036c-.186-.034-.39-.062-.63-.085-1.09-.104-2.335-.16-3.23-.16-.882 0-2.093.055-3.191.16-.24.023-.445.051-.632.085l-.181.036-.622.15c-.116.025-.227.041-.342.049l-.177.006H6.5v.5c0 .245-.177.45-.41.492L6 18.75H4c-.245 0-.45-.177-.492-.41l-.008-.09v-.5h-.1c-.186 0-.354-.102-.44-.261l-.036-.084-.059-.199c-.053-.195-.115-.466-.177-.805-.06-.324-.11-.672-.148-1.04-.142-1.375.085-3.934.473-4.453.103-.137.238-.25.42-.366l.143-.085.579-.325.14-.085c.164-.102.292-.2.393-.297H4c-.276 0-.5-.224-.5-.5 0-.245.177-.45.41-.492L4 8.75h1c.084 0 .163.02.232.057l.049-.101.225-.457c.427-.808.892-1.36 1.555-1.693C8.149 6.01 10.13 5.75 12 5.75zm0 4c-2.229 0-3.99.184-5.33.488-.712.16-1.157.317-1.372.42l-.058.03c-.06.034-.125.053-.19.06-.079.055-.163.11-.253.165l-.139.083-.038.022-.144.08c-.146.082-.34.19-.446.252l-.118.075c-.053.038-.086.066-.098.083-.186.248-.396 2.617-.279 3.75.035.342.082.664.137.964l.033.175.076.353h3.074l.107-.004.103-.01.106-.02.613-.148c.275-.06.57-.105.93-.14 1.13-.107 2.373-.163 3.286-.163.926 0 2.202.056 3.326.164.268.025.5.057.716.096l.29.06.546.133.103.018.1.01.104.004h3.033l.055-.245.056-.283c.054-.3.1-.622.136-.965.117-1.13-.093-3.5-.278-3.75l-.052-.048-.048-.035-.118-.075-.626-.351-.193-.117c-.07-.045-.137-.09-.2-.135-.043-.003-.086-.013-.128-.029l-.062-.029c-.187-.102-.646-.273-1.43-.45-1.34-.304-3.101-.488-5.33-.488zm.508 3.5c.916 0 1.29.041 2.314.2 1.025.16 1.799.396 2.036.68.433.51-.212 1.008-.757 1.076-.25.03-.62.04-1.152.043h-.81c-.456 0-.994-.003-1.627-.003-.632 0-1.17.002-1.627.003h-.81c-.531-.003-.9-.013-1.15-.043-.547-.065-1.242-.599-.767-1.075.316-.314 1.053-.549 2.035-.68.982-.133 1.399-.201 2.315-.201zm6.226-2l.134.003c.061.002.111.042.116.093.026.172.02.346-.019.516-.076.294-.486.388-.883.388-.662 0-1.323-.033-1.98-.097-.108-.016-.138-.166-.053-.221.34-.212.722-.371 1.128-.47.798-.196 1.248-.222 1.69-.21zm-11.911.212c.406.099.789.258 1.128.47.085.055.055.205-.053.221-.657.064-1.318.097-1.98.097-.397 0-.807-.094-.883-.388-.04-.17-.045-.344-.019-.516.005-.05.055-.091.116-.093.443-.013.893.013 1.69.209zM12 6.75c-1.721 0-3.582.244-4.491.7-.44.22-.78.625-1.118 1.266l-.19.382c-.039.083-.08.17-.122.254.115-.03.238-.06.369-.09 1.416-.32 3.25-.512 5.552-.512 2.301 0 4.136.191 5.552.512l.372.09-.313-.633c-.339-.643-.68-1.048-1.119-1.267-.909-.455-2.78-.702-4.492-.702z" transform="translate(-573 -84) translate(573 84)"/>
            </g>
        </g>
    </g>
</svg>
