<svg width="16" height="16" viewBox="0 0 16 16" fill="none" xmlns="http://www.w3.org/2000/svg">
<path fill-rule="evenodd" clip-rule="evenodd" d="M11 2.78105C10.4115 2.78105 9.84714 3.01483 9.43101 3.43097L2.43101 10.431C2.36849 10.4935 2.33337 10.5783 2.33337 10.6667V13.3333C2.33337 13.5174 2.48261 13.6667 2.66671 13.6667H5.33337C5.42178 13.6667 5.50656 13.6316 5.56908 13.569L11.9017 7.23639L11.9024 7.23571L11.9031 7.23502L12.5691 6.56904C12.9852 6.1529 13.219 5.58851 13.219 5C13.219 4.4115 12.9852 3.8471 12.5691 3.43097C12.1529 3.01483 11.5885 2.78105 11 2.78105ZM11.6667 6.5286L12.0977 6.09763C12.3888 5.80652 12.5523 5.41169 12.5523 5C12.5523 4.58831 12.3888 4.19348 12.0977 3.90237C11.8066 3.61126 11.4117 3.44772 11 3.44772C10.5883 3.44772 10.1935 3.61126 9.90241 3.90237L9.47144 4.33334L11.6667 6.5286ZM9.00004 4.80474L3.00004 10.8047V13H5.1953L11.1953 7L9.00004 4.80474Z" fill="#a7a7a7"/>
</svg>
