<svg xmlns="http://www.w3.org/2000/svg" width="16" height="16" fill="none" viewBox="0 0 16 16">
    <path stroke="#000" stroke-linejoin="round" stroke-width=".7" d="M12.75 2h-9.5c-.464.001-.908.186-1.236.514-.328.328-.513.772-.514 1.236v6c.001.464.186.908.514 1.236.328.328.772.513 1.236.514H4.5V14l2.929-2.442c.045-.037.101-.058.16-.058h5.161c.464-.001.908-.186 1.236-.514.328-.328.513-.772.514-1.236v-6c-.001-.464-.186-.908-.514-1.236-.328-.328-.772-.513-1.236-.514z"/>
    <path fill="#000" d="M4.667 7.333c.368 0 .666-.298.666-.666 0-.369-.298-.667-.666-.667C4.298 6 4 6.298 4 6.667c0 .368.298.666.667.666zM8 7.333c.368 0 .667-.298.667-.666C8.667 6.298 8.368 6 8 6c-.368 0-.667.298-.667.667 0 .368.299.666.667.666zM11.333 7.333c.368 0 .667-.298.667-.666 0-.369-.299-.667-.667-.667-.368 0-.666.298-.666.667 0 .368.298.666.666.666z"/>
</svg>
