<svg width="16" height="16" viewBox="0 0 16 16" fill="none" xmlns="http://www.w3.org/2000/svg">
<path fill-rule="evenodd" clip-rule="evenodd" d="M6.00004 3.00001C5.73482 3.00001 5.48047 3.10537 5.29293 3.2929C5.1054 3.48044 5.00004 3.73479 5.00004 4.00001V12.7446L7.82854 11.0475C7.9341 10.9842 8.06598 10.9842 8.17154 11.0475L11 12.7446V4.00001C11 3.73479 10.8947 3.48044 10.7071 3.2929C10.5196 3.10537 10.2653 3.00001 10 3.00001H6.00004ZM4.82153 2.8215C5.13409 2.50894 5.55801 2.33334 6.00004 2.33334H10C10.4421 2.33334 10.866 2.50894 11.1786 2.8215C11.4911 3.13406 11.6667 3.55798 11.6667 4.00001V13.3333C11.6667 13.4534 11.6021 13.5642 11.4976 13.6234C11.3931 13.6826 11.2649 13.681 11.1619 13.6192L8.00004 11.7221L4.83821 13.6192C4.73523 13.681 4.60698 13.6826 4.50247 13.6234C4.39797 13.5642 4.33337 13.4534 4.33337 13.3333V4.00001C4.33337 3.55798 4.50897 3.13406 4.82153 2.8215Z" fill="#222222"/>
</svg>
