<svg width="16" height="16" viewBox="0 0 16 16" fill="none" xmlns="http://www.w3.org/2000/svg">
<path d="M8.00004 1.33333C11.6819 1.33333 14.6667 4.3181 14.6667 8C14.6667 11.6819 11.6819 14.6667 8.00004 14.6667C4.31814 14.6667 1.33337 11.6819 1.33337 8C1.33337 4.3181 4.31814 1.33333 8.00004 1.33333ZM8.00004 1.99999C4.68633 1.99999 2.00004 4.68629 2.00004 8C2.00004 11.3137 4.68633 14 8.00004 14C11.3137 14 14 11.3137 14 8C14 4.68629 11.3137 1.99999 8.00004 1.99999ZM4.83386 6.19047C5.02164 6.19047 5.19408 6.2172 5.35117 6.27067C5.50826 6.32414 5.64278 6.39849 5.75473 6.49373C5.86668 6.58897 5.95426 6.70342 6.01745 6.83709C6.08065 6.97076 6.11225 7.11779 6.11225 7.27819C6.10864 7.40852 6.08246 7.53467 6.0337 7.65664C5.98495 7.77861 5.92266 7.89473 5.84682 8.00501C5.77098 8.11528 5.68522 8.22222 5.58952 8.32581L5.44394 8.47869L5.2943 8.62656L4.45467 9.40852L4.56098 9.38784L4.66323 9.37593L4.76141 9.3703L4.85553 9.36842H6.15558V10H3.33337V9.59899L4.69302 8.3609L4.81132 8.24822C4.96213 8.10011 5.0852 7.96056 5.18054 7.82957C5.29971 7.66583 5.3593 7.48705 5.3593 7.29323C5.3593 7.11946 5.30784 6.9883 5.20492 6.89974C5.10199 6.81119 4.96206 6.76691 4.78511 6.76691C4.63343 6.76691 4.50523 6.80785 4.40051 6.88972C4.29578 6.97159 4.22175 7.06766 4.17841 7.17794C4.16397 7.2147 4.15404 7.25313 4.14862 7.29323L4.14117 7.35714L4.13508 7.42857L3.42546 7.31829L3.44947 7.19391C3.52294 6.87211 3.67203 6.62953 3.89673 6.46616C4.14952 6.28237 4.4619 6.19047 4.83386 6.19047ZM9.0428 6.21553V8.52631H9.55199V9.09273H9.0428V10H8.38735V9.09273H6.46976V8.53132L6.94036 7.95676L8.34401 6.21553H9.0428ZM10.8087 6V7.00751L10.7762 7.53383L10.9041 7.43079C10.9928 7.3647 11.0883 7.30381 11.1906 7.24812C11.3441 7.16457 11.5237 7.1228 11.7296 7.1228C12.0582 7.1228 12.2966 7.22222 12.4446 7.42105C12.5742 7.59502 12.647 7.82849 12.6632 8.12143L12.6667 8.25062V10H11.8704V8.34085L11.8676 8.23767C11.8584 8.07477 11.8259 7.95711 11.7702 7.88471C11.7034 7.79782 11.5942 7.75438 11.4425 7.75438C11.3161 7.75438 11.2078 7.78111 11.1175 7.83458C11.0498 7.87468 10.9749 7.92888 10.893 7.99718L10.8087 8.07017V10H10.0178V6H10.8087ZM8.39818 7.05263L7.20646 8.53634H8.38735L8.38855 7.29713L8.39818 7.05263Z" fill="#222222"/>
</svg>
