<svg width="16" height="16" viewBox="0 0 16 16" fill="none" xmlns="http://www.w3.org/2000/svg">
<mask id="path-1-outside-1_5_270" maskUnits="userSpaceOnUse" x="0.766724" y="0.600006" width="15" height="15" fill="black">
<rect fill="white" x="0.766724" y="0.600006" width="15" height="15"/>
<path fill-rule="evenodd" clip-rule="evenodd" d="M12.7488 8.62401C12.7728 8.42401 12.7888 8.21601 12.7888 8.00001C12.7888 7.78401 12.7728 7.57601 12.7408 7.37601L14.0928 6.32001C14.2128 6.22401 14.2448 6.04801 14.1728 5.91201L12.8928 3.69601C12.8128 3.55201 12.6448 3.50401 12.5008 3.55201L10.9088 4.19201C10.5728 3.93601 10.2208 3.72801 9.8288 3.56801L9.5888 1.87201C9.5648 1.71201 9.4288 1.60001 9.2688 1.60001H6.7088C6.5488 1.60001 6.4208 1.71201 6.3968 1.87201L6.1568 3.56801C5.7648 3.72801 5.4048 3.94401 5.0768 4.19201L3.4848 3.55201C3.3408 3.49601 3.1728 3.55201 3.0928 3.69601L1.8128 5.91201C1.7328 6.05601 1.7648 6.22401 1.8928 6.32001L3.2448 7.37601C3.2128 7.57601 3.1888 7.79201 3.1888 8.00001C3.1888 8.20801 3.2048 8.42401 3.2368 8.62401L1.8848 9.68001C1.7648 9.77601 1.7328 9.95201 1.8048 10.088L3.0848 12.304C3.1648 12.448 3.3328 12.496 3.4768 12.448L5.0688 11.808C5.4048 12.064 5.7568 12.272 6.1488 12.432L6.3888 14.128C6.4208 14.288 6.5488 14.4 6.7088 14.4H9.2688C9.4288 14.4 9.5648 14.288 9.5808 14.128L9.8208 12.432C10.2128 12.272 10.5728 12.056 10.9008 11.808L12.4928 12.448C12.6368 12.504 12.8048 12.448 12.8848 12.304L14.1648 10.088C14.2448 9.94401 14.2128 9.77601 14.0848 9.68001L12.7488 8.62401V8.62401ZM7.9888 10.4C6.6688 10.4 5.5888 9.32001 5.5888 8.00001C5.5888 6.68001 6.6688 5.60001 7.9888 5.60001C9.3088 5.60001 10.3888 6.68001 10.3888 8.00001C10.3888 9.32001 9.3088 10.4 7.9888 10.4Z"/>
</mask>
<path d="M12.7408 7.37601L12.1252 6.58791L11.6601 6.95121L11.7534 7.534L12.7408 7.37601ZM14.0928 6.32001L14.7084 7.10815L14.7175 7.10088L14.0928 6.32001ZM14.1728 5.91201L15.0566 5.44412L15.048 5.42781L15.0387 5.41183L14.1728 5.91201ZM12.8928 3.69601L12.0186 4.18165L12.0227 4.18895L12.0269 4.19618L12.8928 3.69601ZM12.5008 3.55201L12.1846 2.60332L12.1559 2.61289L12.1278 2.62417L12.5008 3.55201ZM10.9088 4.19201L10.3028 4.98744L10.7547 5.33175L11.2818 5.11984L10.9088 4.19201ZM9.8288 3.56801L8.83867 3.70812L8.91914 4.27681L9.4509 4.49385L9.8288 3.56801ZM9.5888 1.87201L10.579 1.73189L10.5777 1.72367L9.5888 1.87201ZM6.3968 1.87201L5.40783 1.72366L5.40666 1.73189L6.3968 1.87201ZM6.1568 3.56801L6.5347 4.49385L7.06646 4.27681L7.14694 3.70812L6.1568 3.56801ZM5.0768 4.19201L4.7038 5.11984L5.22867 5.33084L5.67991 4.98967L5.0768 4.19201ZM3.4848 3.55201L3.85782 2.62411L3.84725 2.62L3.4848 3.55201ZM3.0928 3.69601L3.95873 4.19618L3.9629 4.18895L3.96696 4.18165L3.0928 3.69601ZM1.8128 5.91201L0.946875 5.41183L0.942698 5.41906L0.938643 5.42636L1.8128 5.91201ZM1.8928 6.32001L2.50835 5.53191L2.50063 5.52588L2.4928 5.52001L1.8928 6.32001ZM3.2448 7.37601L4.23224 7.534L4.32549 6.95121L3.86035 6.58791L3.2448 7.37601ZM3.2368 8.62401L3.85235 9.4121L4.31749 9.0488L4.22424 8.46602L3.2368 8.62401ZM1.8848 9.68001L1.2692 8.89186L1.2601 8.89914L1.8848 9.68001ZM1.8048 10.088L0.921012 10.5559L0.929645 10.5722L0.938875 10.5882L1.8048 10.088ZM3.0848 12.304L3.95896 11.8184L3.9549 11.8111L3.95073 11.8038L3.0848 12.304ZM3.4768 12.448L3.79303 13.3967L3.82173 13.3871L3.8498 13.3758L3.4768 12.448ZM5.0688 11.808L5.67484 11.0126L5.22293 10.6683L4.6958 10.8802L5.0688 11.808ZM6.1488 12.432L7.13894 12.2919L7.05846 11.7232L6.5267 11.5062L6.1488 12.432ZM6.3888 14.128L5.39866 14.2681L5.40265 14.2963L5.40822 14.3241L6.3888 14.128ZM9.5808 14.128L8.59066 13.9879L8.5878 14.0081L8.58576 14.0285L9.5808 14.128ZM9.8208 12.432L9.4429 11.5062L8.91114 11.7232L8.83066 12.2919L9.8208 12.432ZM10.9008 11.808L11.2738 10.8802L10.7489 10.6692L10.2977 11.0103L10.9008 11.808ZM12.4928 12.448L12.1198 13.3759L12.1304 13.38L12.4928 12.448ZM12.8848 12.304L12.0189 11.8038L12.0147 11.8111L12.0106 11.8184L12.8848 12.304ZM14.1648 10.088L15.0307 10.5882L15.0349 10.5809L15.039 10.5736L14.1648 10.088ZM14.0848 9.68001L13.4647 10.4645L13.4747 10.4724L13.4848 10.48L14.0848 9.68001ZM13.7417 8.74315C13.7692 8.51417 13.7888 8.26521 13.7888 8.00001H11.7888C11.7888 8.16681 11.7764 8.33384 11.7559 8.50486L13.7417 8.74315ZM13.7888 8.00001C13.7888 7.73457 13.7691 7.47359 13.7282 7.21802L11.7534 7.534C11.7765 7.67842 11.7888 7.83344 11.7888 8.00001H13.7888ZM13.3564 8.1641L14.7084 7.1081L13.4772 5.53191L12.1252 6.58791L13.3564 8.1641ZM14.7175 7.10088C15.2328 6.68867 15.341 5.98127 15.0566 5.44412L13.289 6.37989C13.1486 6.11474 13.1929 5.75934 13.4681 5.53914L14.7175 7.10088ZM15.0387 5.41183L13.7587 3.19583L12.0269 4.19618L13.3069 6.41218L15.0387 5.41183ZM13.767 3.21036C13.4199 2.58562 12.7166 2.42598 12.1846 2.60332L12.817 4.50069C12.573 4.58204 12.2057 4.51839 12.0186 4.18165L13.767 3.21036ZM12.1278 2.62417L10.5358 3.26417L11.2818 5.11984L12.8738 4.47984L12.1278 2.62417ZM11.5148 3.39657C11.1166 3.09314 10.6887 2.83889 10.2067 2.64216L9.4509 4.49385C9.75292 4.61713 10.029 4.77887 10.3028 4.98744L11.5148 3.39657ZM10.8189 3.42789L10.5789 1.73189L8.59866 2.01212L8.83867 3.70812L10.8189 3.42789ZM10.5777 1.72367C10.4774 1.05502 9.90421 0.600006 9.2688 0.600006V2.60001C8.95339 2.60001 8.65216 2.36899 8.59986 2.02035L10.5777 1.72367ZM9.2688 0.600006H6.7088V2.60001H9.2688V0.600006ZM6.7088 0.600006C6.04226 0.600006 5.50357 1.08565 5.40786 1.72367L7.38574 2.02035C7.33803 2.33836 7.05534 2.60001 6.7088 2.60001V0.600006ZM5.40666 1.73189L5.16666 3.42789L7.14694 3.70812L7.38694 2.01212L5.40666 1.73189ZM5.7789 2.64216C5.29391 2.84011 4.85904 3.10299 4.47369 3.39435L5.67991 4.98967C5.95057 4.78502 6.23569 4.6159 6.5347 4.49385L5.7789 2.64216ZM5.4498 3.26417L3.8578 2.62417L3.1118 4.47984L4.7038 5.11984L5.4498 3.26417ZM3.84725 2.62C3.243 2.38502 2.54427 2.62423 2.21864 3.21036L3.96696 4.18165C3.80133 4.47978 3.4386 4.60699 3.12235 4.48401L3.84725 2.62ZM2.22687 3.19583L0.946875 5.41183L2.67873 6.41218L3.95873 4.19618L2.22687 3.19583ZM0.938643 5.42636C0.631617 5.97901 0.739728 6.7052 1.2928 7.12001L2.4928 5.52001C2.78987 5.74281 2.83398 6.133 2.68696 6.39765L0.938643 5.42636ZM1.27725 7.1081L2.62925 8.1641L3.86035 6.58791L2.50835 5.53191L1.27725 7.1081ZM2.25736 7.21802C2.22063 7.4476 2.1888 7.72025 2.1888 8.00001H4.1888C4.1888 7.86376 4.20497 7.70441 4.23224 7.534L2.25736 7.21802ZM2.1888 8.00001C2.1888 8.25644 2.20832 8.5255 2.24936 8.782L4.22424 8.46602C4.20128 8.32251 4.1888 8.15958 4.1888 8.00001H2.1888ZM2.62125 7.83591L1.26925 8.89191L2.50035 10.4681L3.85235 9.4121L2.62125 7.83591ZM1.2601 8.89914C0.744852 9.31134 0.636635 10.0187 0.921012 10.5559L2.68859 9.62012C2.82896 9.88527 2.78475 10.2407 2.50949 10.4609L1.2601 8.89914ZM0.938875 10.5882L2.21887 12.8042L3.95073 11.8038L2.67073 9.58783L0.938875 10.5882ZM2.21064 12.7896C2.55772 13.4144 3.26099 13.574 3.79303 13.3967L3.16057 11.4993C3.40461 11.418 3.77188 11.4816 3.95896 11.8184L2.21064 12.7896ZM3.8498 13.3758L5.4418 12.7358L4.6958 10.8802L3.1038 11.5202L3.8498 13.3758ZM4.46276 12.6034C4.86101 12.9069 5.28892 13.1611 5.7709 13.3579L6.5267 11.5062C6.22468 11.3829 5.94859 11.2211 5.67484 11.0126L4.46276 12.6034ZM5.15866 12.5721L5.39866 14.2681L7.37894 13.9879L7.13894 12.2919L5.15866 12.5721ZM5.40822 14.3241C5.52619 14.914 6.03482 15.4 6.7088 15.4V13.4C7.06278 13.4 7.31541 13.662 7.36938 13.9319L5.40822 14.3241ZM6.7088 15.4H9.2688V13.4H6.7088V15.4ZM9.2688 15.4C9.8934 15.4 10.504 14.9462 10.5758 14.2275L8.58576 14.0285C8.62563 13.6298 8.9642 13.4 9.2688 13.4V15.4ZM10.5709 14.2681L10.8109 12.5721L8.83066 12.2919L8.59066 13.9879L10.5709 14.2681ZM10.1987 13.3579C10.6837 13.1599 11.1186 12.897 11.5039 12.6057L10.2977 11.0103C10.027 11.215 9.74191 11.3841 9.4429 11.5062L10.1987 13.3579ZM10.5278 12.7358L12.1198 13.3758L12.8658 11.5202L11.2738 10.8802L10.5278 12.7358ZM12.1304 13.38C12.7346 13.615 13.4333 13.3758 13.759 12.7896L12.0106 11.8184C12.1763 11.5202 12.539 11.393 12.8552 11.516L12.1304 13.38ZM13.7507 12.8042L15.0307 10.5882L13.2989 9.58783L12.0189 11.8038L13.7507 12.8042ZM15.039 10.5736C15.346 10.021 15.2379 9.29481 14.6848 8.88001L13.4848 10.48C13.1877 10.2572 13.1436 9.86701 13.2906 9.60236L15.039 10.5736ZM14.7049 8.89548L13.3689 7.83948L12.1287 9.40853L13.4647 10.4645L14.7049 8.89548ZM7.9888 9.40001C7.22108 9.40001 6.5888 8.76772 6.5888 8.00001H4.5888C4.5888 9.87229 6.11651 11.4 7.9888 11.4V9.40001ZM6.5888 8.00001C6.5888 7.23229 7.22108 6.60001 7.9888 6.60001V4.60001C6.11651 4.60001 4.5888 6.12772 4.5888 8.00001H6.5888ZM7.9888 6.60001C8.75651 6.60001 9.3888 7.23229 9.3888 8.00001H11.3888C11.3888 6.12772 9.86108 4.60001 7.9888 4.60001V6.60001ZM9.3888 8.00001C9.3888 8.76772 8.75651 9.40001 7.9888 9.40001V11.4C9.86108 11.4 11.3888 9.87229 11.3888 8.00001H9.3888Z" fill="#222222" mask="url(#path-1-outside-1_5_270)"/>
</svg>
