<svg width="16" height="16" viewBox="0 0 16 16" fill="none" xmlns="http://www.w3.org/2000/svg">
<path d="M7.82 1C10.4755 1 12.64 3.05958 12.64 5.61C12.64 7.84165 10.9023 10.9792 8.60675 14.0789C8.42361 14.3305 8.13119 14.4794 7.82 14.4794C7.50881 14.4794 7.21639 14.3305 7.03562 14.0822C4.73775 10.9779 3 7.83997 3 5.61C3 3.05958 5.16454 1 7.82 1ZM7.82 3.88C6.74857 3.88 5.88 4.74857 5.88 5.82C5.88 6.89143 6.74857 7.76 7.82 7.76C8.89143 7.76 9.76 6.89143 9.76 5.82C9.76 4.74857 8.89143 3.88 7.82 3.88Z" fill="#222222"/>
</svg>
