<svg width="16" height="16" viewBox="0 0 16 16" fill="none" xmlns="http://www.w3.org/2000/svg">
<path d="M13.3336 2.5C13.9778 2.5 14.5 3.02222 14.5 3.6664V12.3336C14.5 12.9778 13.9778 13.5 13.3336 13.5H2.6664C2.02222 13.5 1.5 12.9778 1.5 12.3336V3.6664C1.5 3.02222 2.02222 2.5 2.6664 2.5H13.3336ZM6.02413 7.85578L5.95972 7.89747L2 11.3305V12.3336C2 12.68 2.26429 12.9647 2.60222 12.9969L2.6664 13H6.654L6.64653 12.9923L9.65 10.116L7.00756 7.93485C6.74236 7.71555 6.31444 7.68986 6.02413 7.85578ZM11.0641 9.45891L11.0134 9.50331L7.3605 13H13.3336C13.68 13 13.9647 12.7357 13.9969 12.3978L14 12.3336V11.21L11.8507 9.46431C11.6221 9.27922 11.2922 9.28016 11.0641 9.45891ZM13.3336 3H2.6664C2.32001 3 2.03534 3.26429 2.00305 3.60222L2 3.6664V10.6685L5.64797 7.50707C6.11004 7.16778 6.78738 7.16593 7.25084 7.49201L7.32603 7.54939L10.0135 9.768L10.6659 9.14379C11.0519 8.76723 11.6546 8.7211 12.094 9.02248L12.1656 9.07593L14 10.565V3.6664C14 3.32001 13.7357 3.03534 13.3978 3.00305L13.3336 3ZM11 4.5C11.8284 4.5 12.5 5.17157 12.5 6C12.5 6.82843 11.8284 7.5 11 7.5C10.1716 7.5 9.5 6.82843 9.5 6C9.5 5.17157 10.1716 4.5 11 4.5ZM11 5C10.4477 5 10 5.44772 10 6C10 6.55228 10.4477 7 11 7C11.5523 7 12 6.55228 12 6C12 5.44772 11.5523 5 11 5Z" fill="#ffffff"/>
</svg>
