<svg width="16" height="16" viewBox="0 0 16 16" fill="none" xmlns="http://www.w3.org/2000/svg">
<path d="M7.99996 11.3333C8.36815 11.3333 8.66663 11.6318 8.66663 12C8.66663 12.3682 8.36815 12.6667 7.99996 12.6667C7.63177 12.6667 7.3333 12.3682 7.3333 12C7.3333 11.6318 7.63177 11.3333 7.99996 11.3333ZM10.6197 10.0761C10.7573 10.1984 10.7697 10.4091 10.6474 10.5467C10.5251 10.6843 10.3144 10.6967 10.1768 10.5744C8.93768 9.473 7.0705 9.473 5.83141 10.5744C5.69382 10.6967 5.48312 10.6843 5.36082 10.5467C5.23852 10.4091 5.25092 10.1984 5.38851 10.0761C6.88019 8.7502 9.128 8.7502 10.6197 10.0761ZM12.5519 8.16061C12.6863 8.28634 12.6934 8.49728 12.5677 8.63175C12.4419 8.76621 12.231 8.77329 12.0965 8.64755C9.80033 6.50044 6.23293 6.50044 3.93674 8.64755C3.80227 8.77329 3.59133 8.76621 3.4656 8.63175C3.33986 8.49728 3.34694 8.28634 3.48141 8.16061C6.03387 5.77387 9.99939 5.77387 12.5519 8.16061ZM14.2376 6.04159C14.375 6.16414 14.387 6.37485 14.2645 6.51223C14.1419 6.6496 13.9312 6.66162 13.7939 6.53907C10.4971 3.59809 5.51861 3.59809 2.22186 6.53907C2.08448 6.66162 1.87377 6.6496 1.75122 6.51223C1.62867 6.37485 1.64069 6.16414 1.77806 6.04159C5.32768 2.87503 10.688 2.87503 14.2376 6.04159Z" fill="#222222"/>
</svg>
