<svg xmlns="http://www.w3.org/2000/svg" width="24" height="24" fill="none" viewBox="0 0 24 24">
    <path fill="#222" d="M17 3c2.21 0 4 1.79 4 4v10c0 2.21-1.79 4-4 4H7c-2.21 0-4-1.79-4-4V7c0-2.21 1.79-4 4-4h10zm0 1H7C5.402 4 4.096 5.249 4.005 6.824L4 7v10c0 1.598 1.249 2.904 2.824 2.995L7 20h10c1.598 0 2.904-1.249 2.995-2.824L20 17V7c0-1.598-1.249-2.904-2.824-2.995L17 4zm-5 2c3.314 0 6 2.686 6 6s-2.686 6-6 6-6-2.686-6-6 2.686-6 6-6zm0 1c-2.761 0-5 2.239-5 5s2.239 5 5 5 5-2.239 5-5-2.239-5-5-5zm2 2.5c.245 0 .45.177.492.41l.008.09v4c0 .276-.224.5-.5.5-.245 0-.45-.177-.492-.41L13.5 14v-4c0-.276.224-.5.5-.5zm-4 0c.245 0 .45.177.492.41l.008.09v4c0 .276-.224.5-.5.5-.245 0-.45-.177-.492-.41L9.5 14v-4c0-.276.224-.5.5-.5z"/>
</svg>
