<svg width="16" height="16" viewBox="0 0 16 16" fill="none" xmlns="http://www.w3.org/2000/svg">
<path d="M12.6667 9.33333C13.1865 9.33333 13.6136 9.72993 13.6621 10.237L13.6667 10.3333V11C13.6667 11.5198 13.2701 11.947 12.763 11.9954L12.6667 12H4C3.4802 12 3.05303 11.6034 3.00458 11.0963L3 11V10.3333C3 9.81354 3.39659 9.38637 3.90369 9.33791L4 9.33333H12.6667ZM4.458 10H4C3.85682 10 3.73472 10.0903 3.68752 10.217L3.67204 10.2734L3.66667 10.3333V11C3.66667 11.1636 3.78458 11.2997 3.94008 11.328L4 11.3333H4.458V10ZM12.6667 10H5.12467V11.3333H12.6667C12.8303 11.3333 12.9664 11.2154 12.9946 11.0599L13 11V10.3333C13 10.1697 12.8821 10.0336 12.7266 10.0054L12.6667 10ZM5 3C5.18409 3 5.33333 3.14924 5.33333 3.33333C5.33333 4.00075 5.09846 4.82279 4.629 5.82059C4.20765 6.62995 4 7.35674 4 8C4 8.1841 3.85076 8.33333 3.66667 8.33333C3.48257 8.33333 3.33333 8.1841 3.33333 8C3.33333 7.23961 3.57012 6.41084 4.03168 5.52483C4.45709 4.62008 4.66667 3.88657 4.66667 3.33333C4.66667 3.14924 4.81591 3 5 3ZM7 3C7.1841 3 7.33333 3.14924 7.33333 3.33333C7.33333 4.06457 7.01804 4.849 6.40204 5.68773L6.26544 5.86829C5.63891 6.69311 5.33333 7.40613 5.33333 8C5.33333 8.1841 5.18409 8.33333 5 8.33333C4.81591 8.33333 4.66667 8.1841 4.66667 8C4.66667 7.23808 5.02775 6.39555 5.73695 5.46193C6.36194 4.65895 6.66667 3.94793 6.66667 3.33333C6.66667 3.14924 6.81591 3 7 3Z" fill="#222222"/>
</svg>
