<svg width="16" height="16" viewBox="0 0 16 16" fill="none" xmlns="http://www.w3.org/2000/svg">
<path d="M13.8174 3.36936L13.8477 3.38678L13.8867 3.41623L13.9168 3.44617L13.9509 3.49249L13.9703 3.52913L13.9847 3.56652L13.9966 3.6187L13.9988 3.63765L14 3.66667L13.9994 12.3542L13.9917 12.4075L13.9773 12.4545L13.964 12.4841L13.9468 12.514L13.9174 12.553L13.8872 12.5834L13.8408 12.6176L13.8042 12.637L13.7668 12.6514L13.7224 12.662L13.6667 12.6667C13.6412 12.6667 13.6163 12.6638 13.5925 12.6584L13.5455 12.6439L13.5159 12.6306C11.9188 11.8209 9.96044 11.7909 8.33658 12.5407L8.15073 12.6306C8.12643 12.643 8.10099 12.6521 8.075 12.6581L8.02033 12.666L8 12.6667C7.97401 12.6667 7.94872 12.6637 7.92444 12.6581L7.87906 12.644L7.84927 12.6306C6.25217 11.8209 4.29377 11.7909 2.66991 12.5407L2.48406 12.6306L2.44595 12.6471L2.39514 12.661L2.35415 12.6661L2.29947 12.665L2.24997 12.6561L2.19577 12.637L2.14795 12.6104L2.12472 12.5933L2.08261 12.553L2.05654 12.5191L2.03603 12.4841L2.01956 12.4459L2.00342 12.3816L2.00131 12.3639L2 3.66667L2.00333 3.62267L2.01058 3.5833L2.02968 3.52911L2.05624 3.48128L2.07333 3.45805L2.10206 3.4265L2.14754 3.38988L2.1826 3.36936C3.96462 2.4659 6.14096 2.43363 7.95115 3.27256L8 3.296L8.04886 3.27256C9.85904 2.43363 12.0354 2.4659 13.8174 3.36936ZM8.33388 3.87525L8.33315 11.8158C9.91974 11.1724 11.7477 11.1725 13.3342 11.8161L13.3333 3.87533C11.7678 3.1527 9.89583 3.15311 8.33388 3.87525ZM2.66721 3.87525L2.66649 11.8158C4.25307 11.1724 6.08099 11.1725 7.66751 11.8161L7.66667 3.87533C6.10112 3.1527 4.22916 3.15311 2.66721 3.87525ZM6.66034 9.03053C6.82175 9.11906 6.88084 9.32168 6.79231 9.48309C6.70378 9.6445 6.50117 9.70359 6.33975 9.61506C5.61286 9.2164 4.55901 9.26599 4.0087 9.6063C3.85212 9.70313 3.6467 9.65469 3.54988 9.49812C3.45305 9.34154 3.50149 9.13612 3.65806 9.03929C4.40826 8.57537 5.71804 8.51373 6.66034 9.03053ZM12.327 9.03053C12.4884 9.11906 12.5475 9.32168 12.459 9.48309C12.3704 9.6445 12.1678 9.70359 12.0064 9.61506C11.2795 9.2164 10.2257 9.26599 9.67537 9.6063C9.51879 9.70313 9.31337 9.65469 9.21654 9.49812C9.11972 9.34154 9.16815 9.13612 9.32473 9.03929C10.0749 8.57537 11.3847 8.51373 12.327 9.03053ZM6.66034 7.03053C6.82175 7.11906 6.88084 7.32168 6.79231 7.48309C6.70378 7.6445 6.50117 7.70359 6.33975 7.61506C5.61286 7.2164 4.55901 7.26599 4.0087 7.6063C3.85212 7.70313 3.6467 7.65469 3.54988 7.49812C3.45305 7.34154 3.50149 7.13612 3.65806 7.03929C4.40826 6.57537 5.71804 6.51373 6.66034 7.03053ZM12.327 7.03053C12.4884 7.11906 12.5475 7.32168 12.459 7.48309C12.3704 7.6445 12.1678 7.70359 12.0064 7.61506C11.2795 7.2164 10.2257 7.26599 9.67537 7.6063C9.51879 7.70313 9.31337 7.65469 9.21654 7.49812C9.11972 7.34154 9.16815 7.13612 9.32473 7.03929C10.0749 6.57537 11.3847 6.51373 12.327 7.03053ZM6.66034 5.03053C6.82175 5.11906 6.88084 5.32168 6.79231 5.48309C6.70378 5.6445 6.50117 5.70359 6.33975 5.61506C5.61286 5.2164 4.55901 5.26599 4.0087 5.6063C3.85212 5.70313 3.6467 5.65469 3.54988 5.49812C3.45305 5.34154 3.50149 5.13612 3.65806 5.03929C4.40826 4.57537 5.71804 4.51373 6.66034 5.03053ZM12.327 5.03053C12.4884 5.11906 12.5475 5.32168 12.459 5.48309C12.3704 5.6445 12.1678 5.70359 12.0064 5.61506C11.2795 5.2164 10.2257 5.26599 9.67537 5.6063C9.51879 5.70313 9.31337 5.65469 9.21654 5.49812C9.11972 5.34154 9.16815 5.13612 9.32473 5.03929C10.0749 4.57537 11.3847 4.51373 12.327 5.03053Z" fill="#222222"/>
</svg>
