<!-- <svg xmlns="http://www.w3.org/2000/svg" width="16" height="16" fill="none" viewBox="0 0 16 16">
    <path fill="#222" d="M13.314 2c.552 0 1 .448 1 1v3.536c0 .265-.106.52-.293.707L7.243 14.02c-.39.39-1.024.39-1.415 0l-3.535-3.536c-.39-.39-.39-1.023 0-1.414L9.07 2.293C9.26 2.105 9.513 2 9.778 2h3.536zm-1.475 2.475c-.39-.39-1.024-.39-1.414 0-.39.39-.39 1.024 0 1.414.39.39 1.023.39 1.414 0 .39-.39.39-1.024 0-1.414z"/>
</svg> -->
<?xml version="1.0" encoding="UTF-8" standalone="no"?>
<!DOCTYPE svg PUBLIC "-//W3C//DTD SVG 1.1//EN" "http://www.w3.org/Graphics/SVG/1.1/DTD/svg11.dtd">
<svg width="16" height="16" viewBox="0 0 16 16" version="1.1" xmlns="http://www.w3.org/2000/svg" xmlns:xlink="http://www.w3.org/1999/xlink" xml:space="preserve" xmlns:serif="http://www.serif.com/" style="fill-rule:evenodd;clip-rule:evenodd;stroke-linejoin:round;stroke-miterlimit:1.41421;">
    <path d="M13.314 2c.552 0 1 .448 1 1v3.536c0 .265-.106.52-.293.707L7.243 14.02c-.39.39-1.024.39-1.415 0l-3.535-3.536c-.39-.39-.39-1.023 0-1.414L9.07 2.293C9.26 2.105 9.513 2 9.778 2h3.536zm-1.475 2.475c-.39-.39-1.024-.39-1.414 0-.39.39-.39 1.024 0 1.414.39.39 1.023.39 1.414 0 .39-.39.39-1.024 0-1.414z" style="fill-rule:nonzero;"/>
</svg>
