<svg width="16" height="16" viewBox="0 0 16 16" fill="none" xmlns="http://www.w3.org/2000/svg">
<path d="M5.9351 1.69587L5.95036 1.69547C5.97178 1.69547 5.99272 1.69749 6.01302 1.70134C6.14904 1.71117 6.28623 1.74353 6.42051 1.79891L6.52062 1.84478L9.78848 3.93772C9.88313 3.98492 9.98723 4.00505 10.0854 4.00092L10.0976 3.99946C10.1481 3.9965 10.1953 3.98744 10.2384 3.97279L10.2999 3.94668L13.1482 2.09223C13.3944 1.96182 13.6909 1.96993 13.9295 2.1136C14.1417 2.2413 14.2805 2.45949 14.3088 2.70205L14.3141 2.79401V11.3107C14.3141 11.5776 14.1803 11.8244 13.9833 11.958L13.9154 11.9982L10.5614 14.2026C10.4522 14.2593 10.3367 14.2989 10.2178 14.321C10.1807 14.335 10.14 14.3429 10.0976 14.3429L10.0542 14.34C9.86844 14.3492 9.67784 14.3165 9.49289 14.2402L9.38268 14.1891L6.19205 12.1046C6.04573 12.0301 5.87617 12.0207 5.74051 12.0663L5.67577 12.0937L2.83251 13.9462C2.58635 14.0766 2.28986 14.0685 2.0512 13.9248C1.83907 13.7971 1.7002 13.5789 1.67196 13.3364L1.66663 13.2444V4.72534C1.66663 4.46066 1.79825 4.21547 2.01403 4.06872L2.05932 4.04131L5.34168 1.84109C5.52132 1.74593 5.71846 1.69722 5.91999 1.69736L5.9351 1.69587ZM6.28329 2.48213L6.28368 11.4307C6.338 11.4469 6.39206 11.4668 6.44559 11.4903L6.52546 11.5284L9.71619 13.6129L9.76395 13.6347L9.76443 4.62873C9.69609 4.61246 9.62797 4.5905 9.56058 4.56277L9.46009 4.51682L6.28329 2.48213ZM13.5021 2.66325L13.4862 2.66605L10.6377 4.52061C10.571 4.55588 10.5019 4.58475 10.4311 4.6071L10.4306 13.4928L13.5787 11.4238C13.6104 11.4074 13.6332 11.3788 13.6426 11.3454L13.6474 11.3107V2.79401C13.6474 2.74927 13.624 2.70782 13.5857 2.68477C13.557 2.66747 13.523 2.66242 13.5021 2.66325ZM5.61663 2.4568L2.43077 4.59491L2.40109 4.61266C2.36981 4.62924 2.34731 4.65776 2.33802 4.69092L2.33329 4.72534V13.2444C2.33329 13.2891 2.35672 13.3306 2.39502 13.3536C2.42375 13.3709 2.4577 13.376 2.47857 13.3752L2.49439 13.3724L5.33763 11.5199C5.42683 11.4727 5.52032 11.4369 5.6165 11.4128L5.61663 2.4568Z" fill="#222222"/>
</svg>
