<svg xmlns="http://www.w3.org/2000/svg" width="24" height="24" fill="none" viewBox="0 0 24 24">
    <path fill="#A7A7A7" fill-rule="evenodd" d="M16.5 4.172c-.883 0-1.73.35-2.354.974l-10.5 10.5c-.093.094-.146.221-.146.354v4c0 .276.224.5.5.5h4c.133 0 .26-.053.354-.146l9.498-9.5h.002v-.002l1-.998c.624-.625.974-1.471.974-2.354s-.35-1.73-.974-2.354c-.625-.624-1.471-.974-2.354-.974zm1 5.62l.646-.646c.437-.436.682-1.028.682-1.646 0-.618-.245-1.21-.682-1.646-.436-.437-1.029-.682-1.646-.682s-1.21.245-1.646.682l-.647.646L17.5 9.793zm-4-2.585l-9 9V19.5h3.293l9-9L13.5 7.207z" clip-rule="evenodd"/>
</svg>
