<svg width="16" height="16" viewBox="0 0 16 16" fill="none" xmlns="http://www.w3.org/2000/svg">
<path d="M11.3333 2.66667C12.0697 2.66667 12.6667 3.26363 12.6667 4.00001L12.667 6.0334C13.4276 6.18794 14 6.86045 14 7.66667V10C14 10.3984 13.8253 10.756 13.5483 11.0003C13.8253 11.2441 14 11.6016 14 12C14 12.7364 13.403 13.3333 12.6667 13.3333H3.33333C2.59695 13.3333 2 12.7364 2 12C2 11.6016 2.17472 11.2441 2.4517 10.9997C2.17472 10.756 2 10.3984 2 10V7.66667C2 6.86069 2.5721 6.18833 3.33237 6.03354L3.33333 4.00001C3.33333 3.26363 3.93029 2.66667 4.66667 2.66667H11.3333ZM12.6667 11.3333H3.33333C2.96514 11.3333 2.66667 11.6318 2.66667 12C2.66667 12.3419 2.92403 12.6237 3.25559 12.6622L3.33333 12.6667H12.6667C13.0349 12.6667 13.3333 12.3682 13.3333 12C13.3333 11.6581 13.076 11.3763 12.7444 11.3378L12.6667 11.3333ZM11.3333 3.33334H4.66667C4.32478 3.33334 4.043 3.5907 4.00449 3.92243L4 4.00022L3.99867 6.03267L4.09277 6.05497L4.19871 6.08673L4.32389 6.13459L4.43013 6.18476L4.53337 6.2428L4.61382 6.29511L4.72094 6.37576L4.79931 6.444L4.8785 6.52244L4.95007 6.60328L5.02363 6.69875L5.09812 6.81252L5.14278 6.89209L5.19782 7.00731L5.23963 7.11432L5.26671 7.19862L5.29982 7.33249L5.31905 7.44748C5.32847 7.51914 5.33333 7.59234 5.33333 7.66667V10L5.33154 10.0697L5.3244 10.1547C5.31904 10.2008 5.31135 10.2462 5.30145 10.2907L5.28753 10.3477L5.26667 10.4173C5.23781 10.5051 5.20007 10.5888 5.15454 10.6674L10.8453 10.6667L10.8385 10.6553C10.7881 10.5661 10.7476 10.4704 10.7186 10.3699L10.6906 10.2526L10.6857 10.2253C10.6752 10.1643 10.669 10.1018 10.6672 10.0383L10.6667 7.66667L10.6681 7.5967L10.6743 7.50695L10.6825 7.43636L10.7017 7.32535L10.7216 7.24057C10.7408 7.16797 10.7647 7.0973 10.793 7.02893L10.8521 6.90173L10.9005 6.81464L10.9611 6.72041L11.006 6.65859L11.0905 6.5561L11.1893 6.45468L11.289 6.36774L11.389 6.29327L11.4825 6.23338L11.6186 6.16061L11.6879 6.12973L11.7901 6.09067L11.9072 6.05497L12 6.03334V4.00001C12 3.65811 11.7426 3.37633 11.4111 3.33782L11.3333 3.33334ZM12.3333 6.66667C11.8135 6.66667 11.3864 7.06326 11.3379 7.57036L11.3333 7.66667V10C11.3333 10.3419 11.5907 10.6237 11.9223 10.6622L12 10.6667H12.6667C13.0086 10.6667 13.2903 10.4093 13.3288 10.0778L13.3333 10V7.66667C13.3333 7.18509 12.9929 6.78303 12.5396 6.68797L12.4845 6.67803C12.4352 6.67055 12.3847 6.66667 12.3333 6.66667ZM3.66667 6.66667L3.56026 6.67227L3.45991 6.68807L3.41692 6.69811C3.01556 6.8013 2.71166 7.14739 2.67124 7.57036L2.66667 7.66667V10C2.66667 10.3419 2.92403 10.6237 3.25559 10.6622L3.33333 10.6667H4C4.34189 10.6667 4.62367 10.4093 4.66218 10.0778L4.66667 10V7.66667C4.66667 7.14687 4.27007 6.71971 3.76297 6.67125L3.66667 6.66667ZM7.05719 7.60948C7.18737 7.73965 7.18737 7.95071 7.05719 8.08089L6.58579 8.55229C6.45561 8.68246 6.24456 8.68246 6.11438 8.55229C5.98421 8.42211 5.98421 8.21106 6.11438 8.08089L6.58579 7.60948C6.71596 7.47931 6.92702 7.47931 7.05719 7.60948ZM9.41421 7.60948L9.88562 8.08089C10.0158 8.21106 10.0158 8.42211 9.88562 8.55229C9.75544 8.68246 9.54439 8.68246 9.41421 8.55229L8.94281 8.08089C8.81263 7.95071 8.81263 7.73965 8.94281 7.60948C9.07298 7.47931 9.28404 7.47931 9.41421 7.60948ZM8.4714 6.19527C8.73175 6.45562 8.73175 6.87773 8.4714 7.13808C8.21106 7.39843 7.78895 7.39843 7.5286 7.13808C7.26825 6.87773 7.26825 6.45562 7.5286 6.19527C7.78895 5.93492 8.21106 5.93492 8.4714 6.19527ZM9.88562 4.78105C10.0158 4.91123 10.0158 5.12228 9.88562 5.25246L9.41421 5.72386C9.28404 5.85404 9.07298 5.85404 8.94281 5.72386C8.81263 5.59369 8.81263 5.38263 8.94281 5.25246L9.41421 4.78105C9.54439 4.65088 9.75544 4.65088 9.88562 4.78105ZM6.58579 4.78105L7.05719 5.25246C7.18737 5.38263 7.18737 5.59369 7.05719 5.72386C6.92702 5.85404 6.71596 5.85404 6.58579 5.72386L6.11438 5.25246C5.98421 5.12228 5.98421 4.91123 6.11438 4.78105C6.24456 4.65088 6.45561 4.65088 6.58579 4.78105Z" fill="#222222"/>
</svg>
