<svg xmlns="http://www.w3.org/2000/svg" width="16" height="16" fill="none" viewBox="0 0 16 16">
    <path fill="#fff" fill-rule="evenodd" d="M8 6.167c-1.38 0-2.5 1.119-2.5 2.5 0 1.38 1.12 2.5 2.5 2.5s2.5-1.12 2.5-2.5c0-1.381-1.12-2.5-2.5-2.5zm-1.5 2.5c0-.829.672-1.5 1.5-1.5s1.5.671 1.5 1.5c0 .828-.672 1.5-1.5 1.5s-1.5-.672-1.5-1.5z" clip-rule="evenodd"/>
    <path fill="#fff" fill-rule="evenodd" d="M2.037 4.704c.344-.344.81-.537 1.296-.537H4c.221 0 .433-.088.59-.244.156-.157.243-.369.243-.59 0-.309.123-.606.342-.825.219-.218.516-.341.825-.341h4c.31 0 .606.123.825.341.219.22.342.516.342.825 0 .221.088.433.244.59.156.156.368.244.589.244h.667c.486 0 .952.193 1.296.537.344.344.537.81.537 1.296v6c0 .486-.193.953-.537 1.296-.344.344-.81.537-1.296.537H3.333c-.486 0-.952-.193-1.296-.537-.344-.343-.537-.81-.537-1.296V6c0-.486.193-.952.537-1.296zm3.845-1.488c.031-.032.074-.05.118-.05h4c.044 0 .087.018.118.05.031.03.049.073.049.117 0 .487.193.953.537 1.297.343.344.81.537 1.296.537h.667c.22 0 .433.088.589.244.156.156.244.368.244.59v6c0 .22-.088.432-.244.588-.156.157-.368.244-.59.244H3.334c-.22 0-.433-.087-.589-.244-.156-.156-.244-.368-.244-.589V6c0-.22.088-.433.244-.59.156-.155.368-.243.59-.243H4c.486 0 .953-.193 1.296-.537.344-.344.537-.81.537-1.297 0-.044.018-.086.05-.117z" clip-rule="evenodd"/>
</svg>
