<svg xmlns="http://www.w3.org/2000/svg" width="24" height="24" viewBox="0 0 24 24">
    <g fill="none" fill-rule="evenodd">
        <g fill="#222" fill-rule="nonzero">
            <g>
                <g>
                    <path d="M9.117 9.5c.673 0 1.212.542 1.276 1.222l.007.137v3.636c0 .085-.024.167-.068.238l-.05.067-.716.779v4.371c0 .22-.159.405-.368.443l-.081.007c-.221 0-.405-.16-.443-.37l-.007-.08v-4.545c0-.085.023-.167.067-.238l.05-.067.716-.78v-3.46c0-.234-.143-.415-.317-.453l-.066-.007H5.783c-.18 0-.343.156-.377.374l-.006.085v3.462l.715.78c.057.062.095.138.11.22l.008.084v4.545c0 .249-.201.45-.45.45-.22 0-.404-.16-.442-.37l-.008-.08v-4.371l-.715-.78c-.057-.062-.095-.138-.11-.22l-.008-.084V10.86c0-.696.497-1.281 1.15-1.352l.133-.007h3.334zm8.208 0c.693 0 1.255.542 1.32 1.229l.001.047 1.733 5.4c.085.264-.087.534-.348.58l-.08.008-1.3-.001v3.187c0 .22-.16.405-.37.443l-.08.007c-.222 0-.405-.16-.443-.37l-.008-.08v-3.636c0-.221.16-.405.37-.443l.08-.007 1.132-.001-1.56-4.866-.022-.138c0-.229-.153-.413-.35-.452l-.075-.007h-1.75c-.205 0-.381.16-.418.376l-.007.083-.021.138-1.562 4.866H14.7c.221 0 .405.16.443.37l.007.08v3.637c0 .249-.201.45-.45.45-.22 0-.404-.16-.442-.37l-.008-.08v-3.187h-1.3c-.277 0-.481-.245-.446-.508l.018-.079 1.732-5.402.002-.045c.06-.644.559-1.16 1.191-1.223l.128-.006h1.75zM7.5 4c1.105 0 2 .895 2 2s-.895 2-2 2-2-.895-2-2 .895-2 2-2zm9 0c1.105 0 2 .895 2 2s-.895 2-2 2-2-.895-2-2 .895-2 2-2zm-9 .9c-.608 0-1.1.492-1.1 1.1 0 .608.492 1.1 1.1 1.1.608 0 1.1-.492 1.1-1.1 0-.608-.492-1.1-1.1-1.1zm9 0c-.608 0-1.1.492-1.1 1.1 0 .608.492 1.1 1.1 1.1.608 0 1.1-.492 1.1-1.1 0-.608-.492-1.1-1.1-1.1z" transform="translate(-814 -229) translate(806 225) translate(8 4)"/>
                </g>
            </g>
        </g>
    </g>
</svg>
