<svg width="16" height="16" viewBox="0 0 16 16" fill="none" xmlns="http://www.w3.org/2000/svg">
<path d="M10.0223 2.28888C10.2263 2.13586 10.5113 2.26012 10.5509 2.49858L10.5556 2.55556V13.2222C10.5556 13.4773 10.2852 13.6307 10.0706 13.5194L10.0223 13.4889L7.14671 11.3327L4.00004 11.3333C3.1532 11.3333 2.45388 10.7018 2.34741 9.88394L2.33692 9.77625L2.33337 9.66667V6.33333C2.33337 5.44968 3.02106 4.72664 3.89041 4.67021L3.99999 4.66667L6.85204 4.666L10.0223 2.28888ZM9.88871 3.222L7.16337 5.26623C7.1201 5.29867 7.06983 5.31994 7.01697 5.32855L6.96342 5.33289L4.00004 5.33333C3.48024 5.33333 3.05307 5.72993 3.00462 6.23703L3.00004 6.33333V9.66667C3.00004 10.1865 3.39663 10.6136 3.9037 10.6621L4 10.6667L7.25866 10.6662C7.31277 10.6662 7.36578 10.6794 7.41325 10.7042L7.45871 10.7329L9.88871 12.5553V3.222ZM12.5215 5.5062C13.8474 6.99788 13.8474 9.24568 12.5215 10.7374C12.3992 10.875 12.1886 10.8874 12.051 10.7651C11.9134 10.6427 11.901 10.4321 12.0233 10.2945C13.1246 9.05537 13.1246 7.18819 12.0233 5.9491C11.901 5.8115 11.9134 5.60081 12.051 5.47851C12.1886 5.3562 12.3992 5.3686 12.5215 5.5062Z" fill="#222222"/>
</svg>
