<svg width="16" height="16" viewBox="0 0 16 16" fill="none" xmlns="http://www.w3.org/2000/svg">
<circle cx="8" cy="8" r="8" fill="#ccc"/>
<path fill-rule="evenodd" clip-rule="evenodd" d="M4.654 4.65399C4.44867 4.85932 4.44867 5.19222 4.654 5.39755L7.25646 8L4.654 10.6025C4.44867 10.8078 4.44867 11.1407 4.654 11.346C4.85932 11.5513 5.19222 11.5513 5.39755 11.346L8.00002 8.74355L10.6024 11.346C10.8078 11.5513 11.1407 11.5513 11.346 11.346C11.5513 11.1406 11.5513 10.8077 11.346 10.6024L8.74358 8L11.346 5.39759C11.5513 5.19226 11.5513 4.85936 11.346 4.65403C11.1407 4.44871 10.8078 4.44871 10.6024 4.65403L8.00002 7.25645L5.39755 4.65399C5.19222 4.44867 4.85932 4.44867 4.654 4.65399Z" fill="#fafafa"/>
</svg>
