<svg width="16" height="16" viewBox="0 0 16 16" fill="none" xmlns="http://www.w3.org/2000/svg">
<path d="M11.3333 2C12.8061 2 14 3.19391 14 4.66667V11.3333C14 12.8061 12.8061 14 11.3333 14H4.66667C3.19391 14 2 12.8061 2 11.3333V4.66667C2 3.19391 3.19391 2 4.66667 2H11.3333ZM11.3333 2.66667H4.66667C3.60155 2.66667 2.73089 3.49928 2.67006 4.54915L2.66667 4.66667V11.3333C2.66667 12.3985 3.49928 13.2691 4.54915 13.3299L4.66667 13.3333H11.3333C12.3985 13.3333 13.2691 12.5007 13.3299 11.4508L13.3333 11.3333V4.66667C13.3333 3.60155 12.5007 2.73089 11.4508 2.67006L11.3333 2.66667ZM8 4C10.2091 4 12 5.79086 12 8C12 10.2091 10.2091 12 8 12C5.79086 12 4 10.2091 4 8C4 5.79086 5.79086 4 8 4ZM8 4.66667C6.15905 4.66667 4.66667 6.15905 4.66667 8C4.66667 9.84095 6.15905 11.3333 8 11.3333C9.84095 11.3333 11.3333 9.84095 11.3333 8C11.3333 6.15905 9.84095 4.66667 8 4.66667ZM9.33333 6.33333C9.49697 6.33333 9.63307 6.45125 9.6613 6.60675L9.66667 6.66667V9.33333C9.66667 9.51743 9.51743 9.66667 9.33333 9.66667C9.16969 9.66667 9.03359 9.54875 9.00537 9.39325L9 9.33333V6.66667C9 6.48257 9.14924 6.33333 9.33333 6.33333ZM6.66667 6.33333C6.83031 6.33333 6.96641 6.45125 6.99463 6.60675L7 6.66667V9.33333C7 9.51743 6.85076 9.66667 6.66667 9.66667C6.50303 9.66667 6.36693 9.54875 6.3387 9.39325L6.33333 9.33333V6.66667C6.33333 6.48257 6.48257 6.33333 6.66667 6.33333Z" fill="#222222"/>
</svg>
