<svg width="16" height="16" viewBox="0 0 16 16" fill="none" xmlns="http://www.w3.org/2000/svg">
<path d="M8.33337 8C8.33337 7.81591 8.18414 7.66667 8.00004 7.66667C7.81595 7.66667 7.66671 7.81591 7.66671 8V8.00667C7.66671 8.19077 7.81595 8.34 8.00004 8.34C8.18414 8.34 8.33337 8.19077 8.33337 8.00667V8Z" fill="#222222"/>
<path d="M5.33337 7.66667C5.51747 7.66667 5.66671 7.81591 5.66671 8V8.00667C5.66671 8.19077 5.51747 8.34 5.33337 8.34C5.14928 8.34 5.00004 8.19077 5.00004 8.00667V8C5.00004 7.81591 5.14928 7.66667 5.33337 7.66667Z" fill="#222222"/>
<path d="M11 8C11 7.81591 10.8508 7.66667 10.6667 7.66667C10.4826 7.66667 10.3334 7.81591 10.3334 8V8.00667C10.3334 8.19077 10.4826 8.34 10.6667 8.34C10.8508 8.34 11 8.19077 11 8.00667V8Z" fill="#222222"/>
<path fill-rule="evenodd" clip-rule="evenodd" d="M2.07493 13.6582C2.04464 13.6652 2.01316 13.668 1.98137 13.6662C1.94082 13.664 1.90163 13.6543 1.86546 13.6383C1.82083 13.6187 1.78236 13.5901 1.75147 13.5555C1.72052 13.5209 1.69644 13.4795 1.68193 13.433C1.67008 13.3952 1.66486 13.3552 1.66716 13.3147C1.66892 13.2829 1.67525 13.2519 1.68561 13.2226L2.4995 10.7809C1.77126 9.63121 1.51244 8.28488 1.77749 6.97541C2.0531 5.61376 2.87364 4.39703 4.07369 3.54566C5.27303 2.69479 6.77349 2.26336 8.29628 2.32511C9.81908 2.38685 11.2707 2.93802 12.3799 3.8841C13.4899 4.83091 14.1834 6.1113 14.3185 7.49083C14.4537 8.8709 14.0195 10.2425 13.1065 11.3501C12.1946 12.4565 10.8683 13.2236 9.37936 13.5186C7.92894 13.8059 6.41124 13.6282 5.0924 13.0162L2.07493 13.6582ZM4.45944 4.08939C5.53303 3.32773 6.88696 2.93518 8.26927 2.99123C9.65158 3.04727 10.9581 3.54763 11.9473 4.39132C12.9356 5.23428 13.5379 6.3601 13.655 7.55582C13.7721 8.75102 13.3979 9.94846 12.5921 10.9261C11.7852 11.9049 10.5993 12.5972 9.2498 12.8646C7.90023 13.132 6.48841 12.954 5.27896 12.3668C5.21222 12.3344 5.13658 12.3252 5.06401 12.3406L2.50051 12.8861L3.18294 10.8387C3.21571 10.7404 3.2009 10.6325 3.14285 10.5466C2.4422 9.51038 2.19176 8.28915 2.4309 7.10767C2.67026 5.92517 3.38654 4.85055 4.45944 4.08939Z" fill="#222222"/>
</svg>
