<svg width="16" height="16" viewBox="0 0 24 24" fill="none" xmlns="http://www.w3.org/2000/svg">
<path d="M12 3C12.2455 3 12.4496 3.17688 12.4919 3.41012L12.5 3.5L12.5003 5.51897C15.6916 5.7619 18.2387 8.30926 18.4811 11.5007L20.5 11.5C20.7761 11.5 21 11.7239 21 12C21 12.2455 20.8231 12.4496 20.5899 12.4919L20.5 12.5L18.481 12.5003C18.2381 15.6913 15.6913 18.2381 12.5003 18.481L12.5 20.5C12.5 20.7761 12.2761 21 12 21C11.7545 21 11.5504 20.8231 11.5081 20.5899L11.5 20.5L11.5007 18.4811C8.30926 18.2387 5.7619 15.6916 5.51897 12.5003L3.5 12.5C3.22386 12.5 3 12.2761 3 12C3 11.7545 3.17688 11.5504 3.41012 11.5081L3.5 11.5L5.51889 11.5007C5.76136 8.30893 8.30893 5.76136 11.5007 5.51889L11.5 3.5C11.5 3.22386 11.7239 3 12 3ZM12 6.5C8.96243 6.5 6.5 8.96243 6.5 12C6.5 15.0376 8.96243 17.5 12 17.5C15.0376 17.5 17.5 15.0376 17.5 12C17.5 8.96243 15.0376 6.5 12 6.5ZM12 9C13.6569 9 15 10.3431 15 12C15 13.6569 13.6569 15 12 15C10.3431 15 9 13.6569 9 12C9 10.3431 10.3431 9 12 9Z" fill="#222222"/>
</svg>
