<svg xmlns="http://www.w3.org/2000/svg" width="24" height="24" viewBox="0 0 24 24">
    <g fill="none" fill-rule="evenodd">
        <g fill="#222" fill-rule="nonzero">
            <g>
                <path d="M12 17c.552 0 1 .448 1 1s-.448 1-1 1-1-.448-1-1 .448-1 1-1zm3.93-1.886c.206.184.225.5.041.706-.183.206-.5.225-.706.042-1.858-1.653-4.66-1.653-6.518 0-.206.183-.522.164-.706-.042-.183-.206-.165-.522.042-.706 2.237-1.989 5.61-1.989 7.847 0zm2.898-2.873c.202.189.212.505.024.707-.19.201-.505.212-.707.023-3.444-3.22-8.796-3.22-12.24 0-.202.189-.518.178-.707-.023-.188-.202-.178-.518.024-.707 3.829-3.58 9.777-3.58 13.606 0zm2.529-3.179c.206.184.224.5.04.706-.184.206-.5.224-.706.04-4.945-4.41-12.413-4.41-17.358 0-.206.184-.522.166-.706-.04-.184-.206-.166-.522.04-.706 5.325-4.75 13.365-4.75 18.69 0z" transform="translate(-573 -164) translate(573 164)"/>
            </g>
        </g>
    </g>
</svg>
