<svg xmlns="http://www.w3.org/2000/svg" width="16" height="16" fill="none" viewBox="0 0 16 16">
    <path fill="#222" fill-rule="evenodd" d="M11 2.614c-.633 0-1.24.252-1.687.699l-7 7c-.094.094-.146.22-.146.353v2.667c0 .276.223.5.5.5h2.666c.133 0 .26-.053.354-.146l6.329-6.33.004-.004.005-.004.662-.662c.447-.448.699-1.054.699-1.687s-.252-1.24-.7-1.687c-.447-.447-1.053-.699-1.686-.699zm.667 3.679l.313-.313c.26-.26.406-.613.406-.98 0-.368-.146-.72-.406-.98s-.613-.406-.98-.406-.72.146-.98.406l-.313.313 1.96 1.96zM9 5.04l-5.833 5.834v1.96h1.96L10.96 7 9 5.04z" clip-rule="evenodd"/>
</svg>
