<svg xmlns="http://www.w3.org/2000/svg" width="24" height="24" viewBox="0 0 24 24">
    <g fill="none" fill-rule="evenodd">
        <g fill="#222" fill-rule="nonzero">
            <g>
                <g>
                    <path d="M12 5c4.418 0 8 3.582 8 8s-3.582 8-8 8-8-3.582-8-8 3.582-8 8-8zm0 1c-3.866 0-7 3.134-7 7s3.134 7 7 7 7-3.134 7-7-3.134-7-7-7zm0 3.5c.245 0 .45.177.492.41l.008.09v2.5H14c.245 0 .45.177.492.41l.008.09c0 .245-.177.45-.41.492L14 13.5h-2c-.245 0-.45-.177-.492-.41L11.5 13v-3c0-.276.224-.5.5-.5zM7.404 3.706c.145.198.122.468-.042.639l-.068.06-2.75 2c-.223.162-.536.112-.698-.11-.145-.2-.122-.469.042-.64l.068-.06 2.75-2c.223-.162.536-.112.698.11zm9.813-.157l.077.047 2.75 2c.223.162.273.475.11.698-.144.199-.407.26-.62.157l-.078-.047-2.75-2c-.223-.162-.273-.475-.11-.698.144-.199.407-.26.62-.157z" transform="translate(-814 -361) translate(806 357) translate(8 4)"/>
                </g>
            </g>
        </g>
    </g>
</svg>
