<svg xmlns="http://www.w3.org/2000/svg" width="24" height="24" fill="none" viewBox="0 0 24 24">
    <path fill="#222" d="M8.903 2.544h.023c.032 0 .063.002.094.008.204.015.41.063.61.146l.151.07 4.902 3.139c.142.07.298.1.445.094L15.146 6c.076-.004.147-.018.212-.04l.092-.039 4.272-2.782c.37-.195.814-.183 1.172.032.319.192.527.52.57.883l.007.138v12.775c0 .4-.2.77-.496.971l-.102.06-5.03 3.307c-.165.085-.338.144-.516.178-.056.02-.117.032-.18.032l-.066-.004c-.278.014-.564-.035-.842-.15l-.165-.076-4.786-3.127c-.22-.112-.474-.126-.677-.058l-.097.041-4.265 2.78c-.37.195-.814.183-1.172-.033-.318-.191-.527-.519-.569-.883l-.008-.137V7.088c0-.397.197-.765.521-.985l.068-.041 4.924-3.3c.269-.143.565-.216.867-.216l.023-.002zm.522 1.18v13.422c.082.024.163.054.243.09l.12.057 4.786 3.126.072.033V6.943c-.102-.024-.204-.057-.305-.099l-.15-.069-4.766-3.052zm10.828.27L20.23 4l-4.272 2.782c-.1.053-.204.096-.31.13l-.001 13.328 4.722-3.103c.048-.025.082-.068.096-.118l.007-.052V4.191c0-.067-.035-.13-.092-.164-.044-.026-.094-.033-.126-.032zM8.425 3.686L3.646 6.892l-.044.027c-.047.025-.081.068-.095.117l-.007.052v12.779c0 .067.035.129.093.163.043.026.094.034.125.033l.024-.004 4.265-2.78c.133-.07.274-.124.418-.16V3.685z"/>
</svg>
