<svg xmlns="http://www.w3.org/2000/svg" width="24" height="24" fill="none" viewBox="0 0 24 24">
    <path fill="#222" d="M8.146 8.423c.276 0 .5.224.5.5 0 .246-.177.45-.41.492l-.09.008H6.223c-.74 0-1.347.564-1.416 1.286l-.007.137v9.23c0 .74.564 1.348 1.286 1.418l.137.006h11.539c.74 0 1.347-.564 1.416-1.286l.007-.137v-9.23c0-.74-.565-1.348-1.286-1.417l-.137-.007h-1.924c-.276 0-.5-.224-.5-.5 0-.245.177-.45.41-.492l.09-.008h1.924c1.284 0 2.335 1 2.418 2.264l.005.16v9.23c0 1.285-1 2.336-2.264 2.418l-.16.005H6.224c-1.285 0-2.336-1-2.418-2.264l-.005-.16v-9.23c0-1.285 1-2.336 2.264-2.418l.16-.005h1.922zm3.782-6.919l.09-.004c.187 0 .35.102.436.254l3.738 3.739c.195.195.195.511 0 .707-.174.173-.443.193-.638.058l-.069-.058-2.967-2.966v11.891c0 .276-.224.5-.5.5-.245 0-.45-.177-.492-.41l-.008-.09V3.18L8.5 6.2c-.174.173-.443.193-.638.058l-.07-.058c-.173-.174-.192-.443-.057-.638l.058-.07 3.846-3.846c.081-.08.183-.128.29-.142z"/>
</svg>
