<svg xmlns="http://www.w3.org/2000/svg" width="24" height="24" viewBox="0 0 24 24">
    <g fill="none" fill-rule="evenodd">
        <g fill="#222" fill-rule="nonzero">
            <g>
                <g>
                    <path d="M17 4c1.105 0 2 .895 2 2v3.05c1.141.232 2 1.24 2 2.45V15c0 .598-.262 1.134-.678 1.5.416.366.678.902.678 1.5 0 1.105-.895 2-2 2H5c-1.105 0-2-.895-2-2 0-.598.262-1.134.678-1.5C3.262 16.134 3 15.598 3 15v-3.5c0-1.209.858-2.218 1.999-2.45L5 6c0-1.105.895-2 2-2h10zm2 13H5c-.552 0-1 .448-1 1 0 .513.386.936.883.993L5 19h14c.552 0 1-.448 1-1 0-.513-.386-.936-.883-.993L19 17zM17 5H7c-.513 0-.936.386-.993.884L6 6 5.998 9.05l.141.033.16.048.187.072.16.075.154.087.12.079.161.12.118.103.119.118.107.12.11.144.112.17.067.12.083.173.062.16.041.127.05.2.029.173c.014.108.021.218.021.329V15l-.003.105-.01.127c-.008.07-.02.137-.035.204l-.02.086-.032.104c-.043.132-.1.257-.168.375L16.268 16l-.01-.017c-.076-.134-.137-.277-.18-.428l-.042-.176-.007-.041c-.016-.092-.026-.185-.028-.28L16 11.5l.002-.105.01-.135.012-.105.028-.167.03-.127c.03-.11.065-.215.108-.318l.088-.19.073-.131.09-.141.068-.093.127-.154.148-.152.15-.13.15-.112.14-.09.204-.11.104-.045.153-.059.176-.054L18 9.05V6c0-.513-.386-.936-.883-.993L17 5zm1.5 5c-.78 0-1.42.595-1.493 1.356L17 11.5V15c0 .513.386.936.883.993L18 16h1c.513 0 .936-.386.993-.883L20 15v-3.5c0-.722-.51-1.325-1.19-1.468l-.083-.015c-.074-.011-.15-.017-.227-.017zm-13 0l-.16.008-.15.024-.065.015c-.602.155-1.058.674-1.118 1.309L4 11.5V15c0 .513.386.936.883.993L5 16h1c.513 0 .936-.386.993-.883L7 15v-3.5c0-.78-.595-1.42-1.356-1.493L5.5 10zm5.086 1.414c.195.195.195.512 0 .707l-.707.707c-.196.196-.512.196-.707 0-.196-.195-.196-.511 0-.707l.707-.707c.195-.195.512-.195.707 0zm3.535 0l.707.707c.196.196.196.512 0 .707-.195.196-.511.196-.707 0l-.707-.707c-.195-.195-.195-.512 0-.707.195-.195.512-.195.707 0zm-1.414-2.121c.39.39.39 1.024 0 1.414-.39.39-1.024.39-1.414 0-.39-.39-.39-1.024 0-1.414.39-.39 1.024-.39 1.414 0zm2.121-2.121c.196.195.196.511 0 .707l-.707.707c-.195.195-.512.195-.707 0-.195-.195-.195-.512 0-.707l.707-.707c.196-.196.512-.196.707 0zm-4.95 0l.708.707c.195.195.195.512 0 .707-.195.195-.512.195-.707 0l-.707-.707c-.196-.196-.196-.512 0-.707.195-.196.511-.196.707 0z" transform="translate(-814 -273) translate(806 269) translate(8 4)"/>
                </g>
            </g>
        </g>
    </g>
</svg>
