<svg xmlns="http://www.w3.org/2000/svg" width="32" height="32" fill="none" viewBox="0 0 32 32">
    <path fill="#fff" d="M26.667 5C27.956 5 29 6.044 29 7.333v17.334C29 25.956 27.956 27 26.667 27H5.333C4.044 27 3 25.956 3 24.667V7.333C3 6.044 4.044 5 5.333 5h21.334zM12.048 15.712l-.129.083L4 22.66v2.006c0 .693.529 1.262 1.204 1.327l.129.006h7.975l-.015-.015 6.007-5.753-5.285-4.362c-.53-.439-1.386-.49-1.967-.158zm10.08 3.206l-.101.089L14.72 26h11.946c.693 0 1.262-.529 1.327-1.204l.006-.129V22.42l-4.299-3.491c-.457-.37-1.117-.369-1.573-.011zM26.668 6H5.332c-.693 0-1.262.529-1.327 1.204L4 7.333v14.004l7.296-6.323c.924-.678 2.279-.682 3.206-.03l.15.115 5.375 4.437 1.305-1.248c.772-.753 1.977-.846 2.856-.243l.143.107L28 21.13V7.333c0-.693-.529-1.262-1.204-1.327L26.667 6zM22 9c1.657 0 3 1.343 3 3s-1.343 3-3 3-3-1.343-3-3 1.343-3 3-3zm0 1c-1.105 0-2 .895-2 2s.895 2 2 2 2-.895 2-2-.895-2-2-2z"/>
</svg>
