<svg width="16" height="16" viewBox="0 0 16 16" fill="none" xmlns="http://www.w3.org/2000/svg">
<path d="M8.68676 2.33394L9.03612 2.355C11.105 2.47976 12.893 3.82639 13.5905 5.76545L13.655 5.95714L13.6655 6.01523L13.6667 6.04685V10.7367C13.6667 11.1901 13.3626 11.5823 12.933 11.7007L12.8391 11.7217L4.17241 13.2384C3.62839 13.3336 3.1102 12.9698 3.01499 12.4258L3.00377 12.3399L3.00003 12.2534L3.00007 7.7914C2.99502 7.72008 3.01365 7.64594 3.06142 7.58072L3.1028 7.53365L8.43614 2.42593C8.4898 2.37454 8.55866 2.34292 8.63153 2.33519L8.68676 2.33394ZM13 9.628L3.6666 11.3247L3.667 12.2678L3.67168 12.3108C3.69989 12.472 3.8395 12.5858 3.99754 12.5868L4.05749 12.5817L12.7242 11.0651C12.8637 11.0406 12.9703 10.9315 12.9947 10.7962L13 10.7367V9.628ZM12.9999 8.45133L3.6666 10.148V10.6473L12.9796 8.95418L12.9999 8.952V8.45133ZM13 6.44333L3.6666 8.07667V9.47067L12.9796 7.77771L13 7.77533V6.44333ZM8.79136 3.008L4.35203 7.25933L12.882 5.784L12.8301 5.6623C12.1951 4.25552 10.8776 3.2662 9.34091 3.05455L9.16928 3.03425L8.99599 3.02046L8.79136 3.008ZM9.33336 3.33333C9.88564 3.33333 10.3334 3.78105 10.3334 4.33333C10.3334 4.88562 9.88564 5.33333 9.33336 5.33333C8.78107 5.33333 8.33336 4.88562 8.33336 4.33333C8.33336 3.78105 8.78107 3.33333 9.33336 3.33333Z" fill="#222222"/>
</svg>
